<?xml version="1.0" encoding="us-ascii" standalone="no"?><svg xmlns="http://www.w3.org/2000/svg" xmlns:xlink="http://www.w3.org/1999/xlink" contentStyleType="text/css" height="614px" preserveAspectRatio="none" style="width:471px;height:614px;background:#FFFFFF;" version="1.1" viewBox="0 0 471 614" width="471px" zoomAndPan="magnify"><defs/><g><text fill="#000000" font-family="sans-serif" font-size="14" font-weight="bold" lengthAdjust="spacing" textLength="116" x="176" y="34.3499">&#1056;&#1110;&#1079;&#1085;&#1080;&#1094;&#1103; &#1090;&#1072;&#1073;&#1083;&#1080;&#1094;&#1100;</text><ellipse cx="235.5" cy="59.1999" fill="#222222" rx="10" ry="10" style="stroke:#222222;stroke-width:1.0;"/><rect fill="#F1F1F1" height="35.6001" rx="12.5" ry="12.5" style="stroke:#181818;stroke-width:0.5;" width="180" x="145.5" y="138.3499"/><text fill="#000000" font-family="sans-serif" font-size="12" lengthAdjust="spacing" textLength="160" x="155.5" y="160.65">&#1054;&#1073;&#1088;&#1072;&#1090;&#1080; &#1090;&#1072;&#1073;&#1083;&#1080;&#1094;&#1102; &#1076;&#1083;&#1103; &#1088;&#1110;&#1079;&#1085;&#1080;&#1094;&#1110;</text><rect fill="#F1F1F1" height="35.6001" rx="12.5" ry="12.5" style="stroke:#181818;stroke-width:0.5;" width="449" x="11" y="243.0999"/><text fill="#000000" font-family="sans-serif" font-size="12" lengthAdjust="spacing" textLength="429" x="21" y="265.4">&#1058;&#1088;&#1072;&#1085;&#1089;&#1087;&#1086;&#1085;&#1091;&#1074;&#1072;&#1090;&#1080; &#1086;&#1073;&#1088;&#1072;&#1085;&#1091; &#1090;&#1072;&#1073;&#1083;&#1080;&#1094;&#1102; &#1079; &#1087;&#1086;&#1089;&#1083;&#1110;&#1076;&#1086;&#1074;&#1085;&#1086;&#1089;&#1090;&#1110; &#1089;&#1090;&#1086;&#1074;&#1087;&#1094;&#1110;&#1074; &#1091; &#1084;&#1085;&#1086;&#1078;&#1080;&#1085;&#1091; &#1088;&#1103;&#1076;&#1082;&#1110;&#1074;</text><rect fill="#F1F1F1" height="35.6001" rx="12.5" ry="12.5" style="stroke:#181818;stroke-width:0.5;" width="235" x="118" y="355.4749"/><text fill="#000000" font-family="sans-serif" font-size="12" lengthAdjust="spacing" textLength="215" x="128" y="377.775">&#1057;&#1092;&#1086;&#1088;&#1084;&#1091;&#1074;&#1072;&#1090;&#1080; &#1088;&#1103;&#1076;&#1086;&#1082; &#1079; &#1087;&#1086;&#1090;&#1086;&#1095;&#1085;&#1086;&#1111; &#1090;&#1072;&#1073;&#1083;&#1080;&#1094;&#1110;</text><rect fill="#F1F1F1" height="35.6001" rx="12.5" ry="12.5" style="stroke:#181818;stroke-width:0.5;" width="219" x="126" y="460.225"/><text fill="#000000" font-family="sans-serif" font-size="12" lengthAdjust="spacing" textLength="199" x="136" y="482.5251">&#1042;&#1080;&#1083;&#1091;&#1095;&#1080;&#1090;&#1080; &#1088;&#1103;&#1076;&#1086;&#1082; &#1079; &#1087;&#1086;&#1090;&#1086;&#1095;&#1085;&#1086;&#1111; &#1090;&#1072;&#1073;&#1083;&#1080;&#1094;&#1110;</text><polygon fill="#F1F1F1" points="71,411.0751,400,411.0751,412,423.0751,400,435.0751,71,435.0751,59,423.0751,71,411.0751" style="stroke:#181818;stroke-width:0.5;"/><text fill="#000000" font-family="sans-serif" font-size="11" lengthAdjust="spacing" textLength="17" x="239.5" y="446.35">&#1090;&#1072;&#1082;</text><text fill="#000000" font-family="sans-serif" font-size="11" lengthAdjust="spacing" textLength="329" x="71" y="427.2">&#1057;&#1092;&#1086;&#1088;&#1084;&#1086;&#1074;&#1072;&#1085;&#1080;&#1081; &#1088;&#1103;&#1076;&#1086;&#1082; &#1085;&#1072;&#1083;&#1077;&#1078;&#1080;&#1090;&#1100; &#1084;&#1085;&#1086;&#1078;&#1080;&#1085;&#1110; &#1088;&#1103;&#1076;&#1082;&#1110;&#1074; &#1086;&#1073;&#1088;&#1072;&#1085;&#1086;&#1111; &#1090;&#1072;&#1073;&#1083;&#1080;&#1094;&#1110;?</text><polygon fill="#F1F1F1" points="235.5,515.8251,247.5,527.8251,235.5,539.8251,223.5,527.8251,235.5,515.8251" style="stroke:#181818;stroke-width:0.5;"/><polygon fill="#F1F1F1" points="127.5,298.7,343.5,298.7,355.5,310.7,343.5,322.7,127.5,322.7,115.5,310.7,127.5,298.7" style="stroke:#181818;stroke-width:0.5;"/><text fill="#000000" font-family="sans-serif" font-size="11" lengthAdjust="spacing" textLength="17" x="239.5" y="333.9749">&#1090;&#1072;&#1082;</text><text fill="#000000" font-family="sans-serif" font-size="11" lengthAdjust="spacing" textLength="216" x="127.5" y="314.825">&#1055;&#1086;&#1090;&#1086;&#1095;&#1085;&#1072; &#1090;&#1072;&#1073;&#1083;&#1080;&#1094;&#1103; &#1084;&#1072;&#1108; &#1085;&#1077;&#1086;&#1073;&#1088;&#1086;&#1073;&#1083;&#1077;&#1085;&#1110; &#1088;&#1103;&#1076;&#1082;&#1080;?</text><text fill="#000000" font-family="sans-serif" font-size="11" lengthAdjust="spacing" textLength="9" x="106.5" y="307.6751">&#1085;&#1110;</text><ellipse cx="235.5" cy="592.8251" fill="none" rx="11" ry="11" style="stroke:#222222;stroke-width:1.0;"/><ellipse cx="235.5" cy="592.8251" fill="#222222" rx="6" ry="6" style="stroke:#111111;stroke-width:1.0;"/><polygon fill="#F1F1F1" points="75,193.95,396,193.95,408,205.95,396,217.95,75,217.95,63,205.95,75,193.95" style="stroke:#181818;stroke-width:0.5;"/><text fill="#000000" font-family="sans-serif" font-size="11" lengthAdjust="spacing" textLength="17" x="239.5" y="229.2249">&#1090;&#1072;&#1082;</text><text fill="#000000" font-family="sans-serif" font-size="11" lengthAdjust="spacing" textLength="321" x="75" y="210.0749">&#1054;&#1073;&#1088;&#1072;&#1085;&#1072; &#1090;&#1072;&#1073;&#1083;&#1080;&#1094;&#1103; &#1084;&#1072;&#1108; &#1090;&#1072;&#1082;&#1091; &#1078; &#1082;&#1110;&#1083;&#1100;&#1082;&#1110;&#1089;&#1090;&#1100; &#1089;&#1090;&#1086;&#1074;&#1087;&#1095;&#1080;&#1082;&#1110;&#1074; &#1103;&#1082; &#1110; &#1087;&#1086;&#1090;&#1086;&#1095;&#1085;&#1072;?</text><ellipse cx="441" cy="205.95" fill="none" rx="11" ry="11" style="stroke:#222222;stroke-width:1.0;"/><ellipse cx="441" cy="205.95" fill="#222222" rx="6" ry="6" style="stroke:#111111;stroke-width:1.0;"/><polygon fill="#F1F1F1" points="110.5,89.1999,360.5,89.1999,372.5,101.1999,360.5,113.1999,110.5,113.1999,98.5,101.1999,110.5,89.1999" style="stroke:#181818;stroke-width:0.5;"/><text fill="#000000" font-family="sans-serif" font-size="11" lengthAdjust="spacing" textLength="17" x="239.5" y="124.4748">&#1090;&#1072;&#1082;</text><text fill="#000000" font-family="sans-serif" font-size="11" lengthAdjust="spacing" textLength="250" x="110.5" y="105.3249">&#1055;&#1086;&#1090;&#1086;&#1095;&#1085;&#1072; &#1090;&#1072;&#1073;&#1083;&#1080;&#1094;&#1103; &#1084;&#1072;&#1108; &#1087;&#1088;&#1080;&#1085;&#1072;&#1081;&#1084;&#1085;&#1110; &#1086;&#1076;&#1080;&#1085; &#1089;&#1090;&#1086;&#1074;&#1087;&#1095;&#1080;&#1082;?</text><ellipse cx="405.5" cy="101.1999" fill="none" rx="11" ry="11" style="stroke:#222222;stroke-width:1.0;"/><ellipse cx="405.5" cy="101.1999" fill="#222222" rx="6" ry="6" style="stroke:#111111;stroke-width:1.0;"/><line style="stroke:#181818;stroke-width:1.0;" x1="235.5" x2="235.5" y1="435.0751" y2="460.225"/><polygon fill="#181818" points="231.5,450.225,235.5,460.225,239.5,450.225,235.5,454.225" style="stroke:#181818;stroke-width:1.0;"/><line style="stroke:#181818;stroke-width:1.0;" x1="412" x2="424" y1="423.0751" y2="423.0751"/><polygon fill="#181818" points="420,468.0251,424,478.0251,428,468.0251,424,472.0251" style="stroke:#181818;stroke-width:1.0;"/><line style="stroke:#181818;stroke-width:1.0;" x1="424" x2="424" y1="423.0751" y2="527.8251"/><line style="stroke:#181818;stroke-width:1.0;" x1="424" x2="247.5" y1="527.8251" y2="527.8251"/><polygon fill="#181818" points="257.5,523.8251,247.5,527.8251,257.5,531.8251,253.5,527.8251" style="stroke:#181818;stroke-width:1.0;"/><line style="stroke:#181818;stroke-width:1.0;" x1="235.5" x2="235.5" y1="495.8251" y2="515.8251"/><polygon fill="#181818" points="231.5,505.8251,235.5,515.8251,239.5,505.8251,235.5,509.8251" style="stroke:#181818;stroke-width:1.0;"/><line style="stroke:#181818;stroke-width:1.0;" x1="235.5" x2="235.5" y1="391.0751" y2="411.0751"/><polygon fill="#181818" points="231.5,401.0751,235.5,411.0751,239.5,401.0751,235.5,405.0751" style="stroke:#181818;stroke-width:1.0;"/><line style="stroke:#181818;stroke-width:1.0;" x1="235.5" x2="235.5" y1="322.7" y2="355.4749"/><polygon fill="#181818" points="231.5,345.4749,235.5,355.4749,239.5,345.4749,235.5,349.4749" style="stroke:#181818;stroke-width:1.0;"/><line style="stroke:#181818;stroke-width:1.0;" x1="235.5" x2="235.5" y1="539.8251" y2="549.8251"/><line style="stroke:#181818;stroke-width:1.0;" x1="235.5" x2="436" y1="549.8251" y2="549.8251"/><polygon fill="#181818" points="432,433.5751,436,423.5751,440,433.5751,436,429.5751" style="stroke:#181818;stroke-width:1.0;"/><line style="stroke:#181818;stroke-width:1.0;" x1="436" x2="436" y1="310.7" y2="549.8251"/><line style="stroke:#181818;stroke-width:1.0;" x1="436" x2="355.5" y1="310.7" y2="310.7"/><polygon fill="#181818" points="365.5,306.7,355.5,310.7,365.5,314.7,361.5,310.7" style="stroke:#181818;stroke-width:1.0;"/><line style="stroke:#181818;stroke-width:1.0;" x1="115.5" x2="47" y1="310.7" y2="310.7"/><polygon fill="#181818" points="43,419.5751,47,429.5751,51,419.5751,47,423.5751" style="stroke:#181818;stroke-width:1.0;"/><line style="stroke:#181818;stroke-width:1.0;" x1="47" x2="47" y1="310.7" y2="561.8251"/><line style="stroke:#181818;stroke-width:1.0;" x1="47" x2="235.5" y1="561.8251" y2="561.8251"/><line style="stroke:#181818;stroke-width:1.0;" x1="235.5" x2="235.5" y1="561.8251" y2="581.8251"/><polygon fill="#181818" points="231.5,571.8251,235.5,581.8251,239.5,571.8251,235.5,575.8251" style="stroke:#181818;stroke-width:1.0;"/><line style="stroke:#181818;stroke-width:1.0;" x1="235.5" x2="235.5" y1="278.7" y2="298.7"/><polygon fill="#181818" points="231.5,288.7,235.5,298.7,239.5,288.7,235.5,292.7" style="stroke:#181818;stroke-width:1.0;"/><line style="stroke:#181818;stroke-width:1.0;" x1="235.5" x2="235.5" y1="217.95" y2="243.0999"/><polygon fill="#181818" points="231.5,233.0999,235.5,243.0999,239.5,233.0999,235.5,237.0999" style="stroke:#181818;stroke-width:1.0;"/><line style="stroke:#181818;stroke-width:1.0;" x1="408" x2="430" y1="205.95" y2="205.95"/><polygon fill="#181818" points="420,201.95,430,205.95,420,209.95,424,205.95" style="stroke:#181818;stroke-width:1.0;"/><line style="stroke:#181818;stroke-width:1.0;" x1="235.5" x2="235.5" y1="173.95" y2="193.95"/><polygon fill="#181818" points="231.5,183.95,235.5,193.95,239.5,183.95,235.5,187.95" style="stroke:#181818;stroke-width:1.0;"/><line style="stroke:#181818;stroke-width:1.0;" x1="235.5" x2="235.5" y1="113.1999" y2="138.3499"/><polygon fill="#181818" points="231.5,128.3499,235.5,138.3499,239.5,128.3499,235.5,132.3499" style="stroke:#181818;stroke-width:1.0;"/><line style="stroke:#181818;stroke-width:1.0;" x1="372.5" x2="394.5" y1="101.1999" y2="101.1999"/><polygon fill="#181818" points="384.5,97.1999,394.5,101.1999,384.5,105.1999,388.5,101.1999" style="stroke:#181818;stroke-width:1.0;"/><line style="stroke:#181818;stroke-width:1.0;" x1="235.5" x2="235.5" y1="69.1999" y2="89.1999"/><polygon fill="#181818" points="231.5,79.1999,235.5,89.1999,239.5,79.1999,235.5,83.1999" style="stroke:#181818;stroke-width:1.0;"/><!--SRC=[fP9BJiD038RtEOMNz0fqmLcGIDL8LK4a4jkKe7PJKGcXOSVh16dLH_f8UWNxHloUQTg45eH4DYDxFB-_tquKH1sV-5qCBpZdJFeo8hddbCUyjk7GyyBeyZRolA15P_p61QuB6Q0whLUEY3USoZFnLcBEj82NIELYY0kUQegafyzvWfe14gkB1aLjlqjdLchLy0ZVER_o61efabczoID1QAsGSONPDEqxIxXx-WkVQoK9yPnm6kWDzLGs6HuXec12Ck8LgP5jTG0dwPs3JmSXFNs1Cu6WyuDmHmY4x-OMhaCFJ0PE5IFN66IcIjPtL8bwGW7FTRgg5uDqwg2RUvoxTe0r_t5xESzsY8MzdTaDbiASmNGG7bjsjZ_a0VenRog6TqyBJB3qLq8KybB7CCsQeDteNjDwryrclAofwg-ce9Y2NM5jAAOsbChuJtJ_SQ47XqyGNKkY_yP_tVdTgw3bLQ9oJu0-j0wZwniR-9tGFv6r8lixctUvBm00]--></g></svg>