<?xml version="1.0" encoding="us-ascii" standalone="no"?><svg xmlns="http://www.w3.org/2000/svg" xmlns:xlink="http://www.w3.org/1999/xlink" contentStyleType="text/css" height="1328px" preserveAspectRatio="none" style="width:1096px;height:1328px;background:#FFFFFF;" version="1.1" viewBox="0 0 1096 1328" width="1096px" zoomAndPan="magnify"><defs/><g><!--class Character--><g id="elem_Character"><rect codeLine="2" fill="#F1F1F1" height="138.9996" id="Character" rx="2.5" ry="2.5" style="stroke:#181818;stroke-width:0.5;" width="209" x="338" y="1182.8"/><ellipse cx="407.75" cy="1198.8" fill="#ADD1B2" rx="11" ry="11" style="stroke:#181818;stroke-width:1.0;"/><path d="M407.625,1205.0031 Q405.2344,1205.0031 404.0938,1203.3938 Q402.9531,1201.7844 402.9531,1198.8625 Q402.9531,1195.9406 404.0938,1194.3469 Q405.2344,1192.7375 407.625,1192.7375 Q408.5469,1192.7375 409.25,1192.9875 Q409.9531,1193.2219 410.4531,1193.675 Q410.9688,1194.1125 411.2969,1194.7375 Q411.6406,1195.3625 411.8281,1196.1438 L409.4375,1196.7219 Q409.3438,1196.3 409.2031,1195.9406 Q409.0625,1195.5813 408.8438,1195.3313 Q408.6406,1195.0813 408.3281,1194.9406 Q408.0156,1194.7844 407.5781,1194.7844 Q406.5313,1194.7844 406.0938,1195.5969 Q405.6719,1196.4094 405.6719,1197.8313 L405.6719,1199.9094 Q405.6719,1201.3313 406.0938,1202.1438 Q406.5313,1202.9406 407.5781,1202.9406 Q408.4531,1202.9406 408.8438,1202.4094 Q409.25,1201.8625 409.4375,1201.0031 L411.8281,1201.5813 Q411.6406,1202.3625 411.2969,1203.0031 Q410.9688,1203.6281 410.4531,1204.0813 Q409.9531,1204.5344 409.25,1204.7688 Q408.5469,1205.0031 407.625,1205.0031 Z " fill="#000000"/><text fill="#000000" font-family="sans-serif" font-size="14" lengthAdjust="spacing" textLength="61" x="428.25" y="1204.05">Character</text><line style="stroke:#181818;stroke-width:0.5;" x1="339" x2="546" y1="1214.8" y2="1214.8"/><line style="stroke:#181818;stroke-width:0.5;" x1="339" x2="546" y1="1222.8" y2="1222.8"/><ellipse cx="349" cy="1237.4" fill="#84BE84" rx="3" ry="3" style="stroke:#038048;stroke-width:1.0;"/><text fill="#000000" font-family="sans-serif" font-size="14" lengthAdjust="spacing" textLength="84" x="358" y="1241.1499">int get code()</text><ellipse cx="349" cy="1255.5999" fill="#84BE84" rx="3" ry="3" style="stroke:#038048;stroke-width:1.0;"/><text fill="#000000" font-family="sans-serif" font-size="14" lengthAdjust="spacing" textLength="111" x="358" y="1259.3499">void set code(int)</text><ellipse cx="349" cy="1273.7998" fill="#84BE84" rx="3" ry="3" style="stroke:#038048;stroke-width:1.0;"/><text fill="#000000" font-family="sans-serif" font-size="14" lengthAdjust="spacing" textLength="107" x="358" y="1277.5498">String get value()</text><ellipse cx="349" cy="1291.9997" fill="#84BE84" rx="3" ry="3" style="stroke:#038048;stroke-width:1.0;"/><text fill="#000000" font-family="sans-serif" font-size="14" lengthAdjust="spacing" textLength="98" x="358" y="1295.7497">Object toJson()</text><ellipse cx="349" cy="1310.1996" fill="#84BE84" rx="3" ry="3" style="stroke:#038048;stroke-width:1.0;"/><text fill="#000000" font-family="sans-serif" font-size="14" lengthAdjust="spacing" text-decoration="underline" textLength="183" x="358" y="1313.9496">Character fromJson(Object?)</text></g><!--class CharacterInterval--><g id="elem_CharacterInterval"><rect codeLine="10" fill="#F1F1F1" height="157.1995" id="CharacterInterval" rx="2.5" ry="2.5" style="stroke:#181818;stroke-width:0.5;" width="259" x="442" y="965.6"/><ellipse cx="511.75" cy="981.6" fill="#ADD1B2" rx="11" ry="11" style="stroke:#181818;stroke-width:1.0;"/><path d="M511.625,987.8031 Q509.2344,987.8031 508.0938,986.1937 Q506.9531,984.5844 506.9531,981.6625 Q506.9531,978.7406 508.0938,977.1469 Q509.2344,975.5375 511.625,975.5375 Q512.5469,975.5375 513.25,975.7875 Q513.9531,976.0219 514.4531,976.475 Q514.9688,976.9125 515.2969,977.5375 Q515.6406,978.1625 515.8281,978.9437 L513.4375,979.5219 Q513.3438,979.1 513.2031,978.7406 Q513.0625,978.3812 512.8438,978.1312 Q512.6406,977.8812 512.3281,977.7406 Q512.0156,977.5844 511.5781,977.5844 Q510.5313,977.5844 510.0938,978.3969 Q509.6719,979.2094 509.6719,980.6312 L509.6719,982.7094 Q509.6719,984.1312 510.0938,984.9437 Q510.5313,985.7406 511.5781,985.7406 Q512.4531,985.7406 512.8438,985.2094 Q513.25,984.6625 513.4375,983.8031 L515.8281,984.3812 Q515.6406,985.1625 515.2969,985.8031 Q514.9688,986.4281 514.4531,986.8812 Q513.9531,987.3344 513.25,987.5687 Q512.5469,987.8031 511.625,987.8031 Z " fill="#000000"/><text fill="#000000" font-family="sans-serif" font-size="14" lengthAdjust="spacing" textLength="111" x="532.25" y="986.85">CharacterInterval</text><line style="stroke:#181818;stroke-width:0.5;" x1="443" x2="700" y1="997.6" y2="997.6"/><line style="stroke:#181818;stroke-width:0.5;" x1="443" x2="700" y1="1005.6" y2="1005.6"/><ellipse cx="453" cy="1020.2" fill="#84BE84" rx="3" ry="3" style="stroke:#038048;stroke-width:1.0;"/><text fill="#000000" font-family="sans-serif" font-size="14" lengthAdjust="spacing" textLength="126" x="462" y="1023.9499">Character get start()</text><ellipse cx="453" cy="1038.3999" fill="#84BE84" rx="3" ry="3" style="stroke:#038048;stroke-width:1.0;"/><text fill="#000000" font-family="sans-serif" font-size="14" lengthAdjust="spacing" textLength="121" x="462" y="1042.1499">Character get end()</text><ellipse cx="453" cy="1056.5998" fill="#84BE84" rx="3" ry="3" style="stroke:#038048;stroke-width:1.0;"/><text fill="#000000" font-family="sans-serif" font-size="14" lengthAdjust="spacing" textLength="153" x="462" y="1060.3498">void set start(Character)</text><ellipse cx="453" cy="1074.7997" fill="#84BE84" rx="3" ry="3" style="stroke:#038048;stroke-width:1.0;"/><text fill="#000000" font-family="sans-serif" font-size="14" lengthAdjust="spacing" textLength="148" x="462" y="1078.5497">void set end(Character)</text><ellipse cx="453" cy="1092.9996" fill="#84BE84" rx="3" ry="3" style="stroke:#038048;stroke-width:1.0;"/><text fill="#000000" font-family="sans-serif" font-size="14" lengthAdjust="spacing" textLength="98" x="462" y="1096.7496">Object toJson()</text><ellipse cx="453" cy="1111.1996" fill="#84BE84" rx="3" ry="3" style="stroke:#038048;stroke-width:1.0;"/><text fill="#000000" font-family="sans-serif" font-size="14" lengthAdjust="spacing" text-decoration="underline" textLength="233" x="462" y="1114.9495">CharacterInterval fromJson(Object?)</text></g><!--class CharacterIntervalString--><g id="elem_CharacterIntervalString"><rect codeLine="21" fill="#F1F1F1" height="120.7997" id="CharacterIntervalString" rx="2.5" ry="2.5" style="stroke:#181818;stroke-width:0.5;" width="296" x="779.5" y="784.8"/><ellipse cx="849.25" cy="800.8" fill="#ADD1B2" rx="11" ry="11" style="stroke:#181818;stroke-width:1.0;"/><path d="M849.125,807.0031 Q846.7344,807.0031 845.5938,805.3938 Q844.4531,803.7844 844.4531,800.8625 Q844.4531,797.9406 845.5938,796.3469 Q846.7344,794.7375 849.125,794.7375 Q850.0469,794.7375 850.75,794.9875 Q851.4531,795.2219 851.9531,795.675 Q852.4688,796.1125 852.7969,796.7375 Q853.1406,797.3625 853.3281,798.1438 L850.9375,798.7219 Q850.8438,798.3 850.7031,797.9406 Q850.5625,797.5813 850.3438,797.3313 Q850.1406,797.0813 849.8281,796.9406 Q849.5156,796.7844 849.0781,796.7844 Q848.0313,796.7844 847.5938,797.5969 Q847.1719,798.4094 847.1719,799.8313 L847.1719,801.9094 Q847.1719,803.3313 847.5938,804.1438 Q848.0313,804.9406 849.0781,804.9406 Q849.9531,804.9406 850.3438,804.4094 Q850.75,803.8625 850.9375,803.0031 L853.3281,803.5813 Q853.1406,804.3625 852.7969,805.0031 Q852.4688,805.6281 851.9531,806.0813 Q851.4531,806.5344 850.75,806.7688 Q850.0469,807.0031 849.125,807.0031 Z " fill="#000000"/><text fill="#000000" font-family="sans-serif" font-size="14" lengthAdjust="spacing" textLength="148" x="869.75" y="806.05">CharacterIntervalString</text><line style="stroke:#181818;stroke-width:0.5;" x1="780.5" x2="1074.5" y1="816.8" y2="816.8"/><line style="stroke:#181818;stroke-width:0.5;" x1="780.5" x2="1074.5" y1="824.8" y2="824.8"/><ellipse cx="790.5" cy="839.4" fill="#84BE84" rx="3" ry="3" style="stroke:#038048;stroke-width:1.0;"/><text fill="#000000" font-family="sans-serif" font-size="14" lengthAdjust="spacing" textLength="241" x="799.5" y="843.1499">List&lt;CharacterInterval&gt; get intervals()</text><ellipse cx="790.5" cy="857.5999" fill="#84BE84" rx="3" ry="3" style="stroke:#038048;stroke-width:1.0;"/><text fill="#000000" font-family="sans-serif" font-size="14" lengthAdjust="spacing" textLength="268" x="799.5" y="861.3499">void set intervals(List&lt;CharacterInterval&gt;)</text><ellipse cx="790.5" cy="875.7998" fill="#84BE84" rx="3" ry="3" style="stroke:#038048;stroke-width:1.0;"/><text fill="#000000" font-family="sans-serif" font-size="14" lengthAdjust="spacing" textLength="98" x="799.5" y="879.5498">Object toJson()</text><ellipse cx="790.5" cy="893.9997" fill="#84BE84" rx="3" ry="3" style="stroke:#038048;stroke-width:1.0;"/><text fill="#000000" font-family="sans-serif" font-size="14" lengthAdjust="spacing" text-decoration="underline" textLength="270" x="799.5" y="897.7497">CharacterIntervalString fromJson(Object?)</text></g><!--class Column--><g id="elem_Column"><rect codeLine="30" fill="#F1F1F1" height="229.9992" id="Column" rx="2.5" ry="2.5" style="stroke:#181818;stroke-width:0.5;" width="330" x="335.5" y="386.8"/><ellipse cx="422.75" cy="402.8" fill="#A9DCDF" rx="11" ry="11" style="stroke:#181818;stroke-width:1.0;"/><path d="M425.1406,408.05 L424.3906,405.1906 L421.1563,405.1906 L420.4219,408.05 L417.8281,408.05 L421.0469,396.1906 L424.6563,396.1906 L427.8594,408.05 L425.1406,408.05 Z M422.8438,398.6437 L422.7188,398.6437 L421.5625,403.1437 L424,403.1437 L422.8438,398.6437 Z " fill="#000000"/><text fill="#000000" font-family="sans-serif" font-size="14" font-style="italic" lengthAdjust="spacing" textLength="48" x="443.25" y="408.05">Column</text><rect fill="#FFFFFF" height="17.6001" style="stroke:#181818;stroke-width:1.0;stroke-dasharray:2.0,2.0;" width="97" x="571.5" y="383.8"/><text fill="#000000" font-family="sans-serif" font-size="12" font-style="italic" lengthAdjust="spacing" textLength="95" x="572.5" y="397.1001">T extends Object?</text><line style="stroke:#181818;stroke-width:0.5;" x1="336.5" x2="664.5" y1="418.8" y2="418.8"/><line style="stroke:#181818;stroke-width:0.5;" x1="336.5" x2="664.5" y1="426.8" y2="426.8"/><ellipse cx="346.5" cy="441.4" fill="#84BE84" rx="3" ry="3" style="stroke:#038048;stroke-width:1.0;"/><text fill="#000000" font-family="sans-serif" font-size="14" lengthAdjust="spacing" textLength="108" x="355.5" y="445.1499">String get name()</text><ellipse cx="346.5" cy="459.5999" fill="#84BE84" rx="3" ry="3" style="stroke:#038048;stroke-width:1.0;"/><text fill="#000000" font-family="sans-serif" font-size="14" lengthAdjust="spacing" textLength="113" x="355.5" y="463.3499">List&lt;T&gt; get cells()</text><ellipse cx="346.5" cy="477.7998" fill="#84BE84" rx="3" ry="3" style="stroke:#038048;stroke-width:1.0;"/><text fill="#000000" font-family="sans-serif" font-size="14" lengthAdjust="spacing" textLength="135" x="355.5" y="481.5498">void set name(String)</text><ellipse cx="346.5" cy="495.9997" fill="#84BE84" rx="3" ry="3" style="stroke:#038048;stroke-width:1.0;"/><text fill="#000000" font-family="sans-serif" font-size="14" lengthAdjust="spacing" textLength="109" x="355.5" y="499.7497">void addDefault()</text><ellipse cx="346.5" cy="514.1996" fill="#84BE84" rx="3" ry="3" style="stroke:#038048;stroke-width:1.0;"/><text fill="#000000" font-family="sans-serif" font-size="14" lengthAdjust="spacing" textLength="98" x="355.5" y="517.9496">Object toJson()</text><ellipse cx="346.5" cy="532.3996" fill="#84BE84" rx="3" ry="3" style="stroke:#038048;stroke-width:1.0;"/><text fill="#000000" font-family="sans-serif" font-size="14" lengthAdjust="spacing" text-decoration="underline" textLength="229" x="355.5" y="536.1495">Column&lt;Object&gt; fromJson(Object?)</text><polygon fill="#FFFF44" points="346.5,545.5995,350.5,549.5995,346.5,553.5995,342.5,549.5995" style="stroke:#B38D22;stroke-width:1.0;"/><text fill="#000000" font-family="sans-serif" font-size="14" lengthAdjust="spacing" textLength="137" x="355.5" y="554.3495">T? parseCell(Object?)</text><polygon fill="#FFFF44" points="346.5,563.7994,350.5,567.7994,346.5,571.7994,342.5,567.7994" style="stroke:#B38D22;stroke-width:1.0;"/><text fill="#000000" font-family="sans-serif" font-size="14" font-style="italic" lengthAdjust="spacing" textLength="127" x="355.5" y="572.5494">String get typeCode()</text><polygon fill="#FFFF44" points="346.5,581.9993,350.5,585.9993,346.5,589.9993,342.5,585.9993" style="stroke:#B38D22;stroke-width:1.0;"/><text fill="#000000" font-family="sans-serif" font-size="14" font-style="italic" lengthAdjust="spacing" textLength="103" x="355.5" y="590.7493">T createDefault()</text><rect fill="#F24D5C" height="6" style="stroke:#C82930;stroke-width:1.0;" width="6" x="343.5" y="602.1992"/><text fill="#000000" font-family="sans-serif" font-size="14" lengthAdjust="spacing" textLength="304" x="355.5" y="608.9492">Column&lt;T&gt;? parse(String, String, List&lt;Object?&gt;)</text></g><!--class IntegerColumn--><g id="elem_IntegerColumn"><rect codeLine="43" fill="#F1F1F1" height="48" id="IntegerColumn" rx="2.5" ry="2.5" style="stroke:#181818;stroke-width:0.5;" width="201" x="7" y="676.8"/><ellipse cx="22" cy="692.8" fill="#ADD1B2" rx="11" ry="11" style="stroke:#181818;stroke-width:1.0;"/><path d="M21.875,699.0031 Q19.4844,699.0031 18.3438,697.3938 Q17.2031,695.7844 17.2031,692.8625 Q17.2031,689.9406 18.3438,688.3469 Q19.4844,686.7375 21.875,686.7375 Q22.7969,686.7375 23.5,686.9875 Q24.2031,687.2219 24.7031,687.675 Q25.2188,688.1125 25.5469,688.7375 Q25.8906,689.3625 26.0781,690.1438 L23.6875,690.7219 Q23.5938,690.3 23.4531,689.9406 Q23.3125,689.5813 23.0938,689.3313 Q22.8906,689.0813 22.5781,688.9406 Q22.2656,688.7844 21.8281,688.7844 Q20.7813,688.7844 20.3438,689.5969 Q19.9219,690.4094 19.9219,691.8313 L19.9219,693.9094 Q19.9219,695.3313 20.3438,696.1438 Q20.7813,696.9406 21.8281,696.9406 Q22.7031,696.9406 23.0938,696.4094 Q23.5,695.8625 23.6875,695.0031 L26.0781,695.5813 Q25.8906,696.3625 25.5469,697.0031 Q25.2188,697.6281 24.7031,698.0813 Q24.2031,698.5344 23.5,698.7688 Q22.7969,699.0031 21.875,699.0031 Z " fill="#000000"/><text fill="#000000" font-family="sans-serif" font-size="14" lengthAdjust="spacing" textLength="96" x="36" y="698.05">IntegerColumn</text><rect fill="#FFFFFF" height="17.6001" style="stroke:#181818;stroke-width:1.0;stroke-dasharray:2.0,2.0;" width="71" x="140" y="673.8"/><text fill="#000000" font-family="sans-serif" font-size="12" font-style="italic" lengthAdjust="spacing" textLength="69" x="141" y="687.1001">T extends int</text><line style="stroke:#181818;stroke-width:0.5;" x1="8" x2="207" y1="708.8" y2="708.8"/><line style="stroke:#181818;stroke-width:0.5;" x1="8" x2="207" y1="716.8" y2="716.8"/></g><!--class RealColumn--><g id="elem_RealColumn"><rect codeLine="44" fill="#F1F1F1" height="48" id="RealColumn" rx="2.5" ry="2.5" style="stroke:#181818;stroke-width:0.5;" width="205" x="243" y="676.8"/><ellipse cx="258" cy="692.8" fill="#ADD1B2" rx="11" ry="11" style="stroke:#181818;stroke-width:1.0;"/><path d="M257.875,699.0031 Q255.4844,699.0031 254.3438,697.3938 Q253.2031,695.7844 253.2031,692.8625 Q253.2031,689.9406 254.3438,688.3469 Q255.4844,686.7375 257.875,686.7375 Q258.7969,686.7375 259.5,686.9875 Q260.2031,687.2219 260.7031,687.675 Q261.2188,688.1125 261.5469,688.7375 Q261.8906,689.3625 262.0781,690.1438 L259.6875,690.7219 Q259.5938,690.3 259.4531,689.9406 Q259.3125,689.5813 259.0938,689.3313 Q258.8906,689.0813 258.5781,688.9406 Q258.2656,688.7844 257.8281,688.7844 Q256.7813,688.7844 256.3438,689.5969 Q255.9219,690.4094 255.9219,691.8313 L255.9219,693.9094 Q255.9219,695.3313 256.3438,696.1438 Q256.7813,696.9406 257.8281,696.9406 Q258.7031,696.9406 259.0938,696.4094 Q259.5,695.8625 259.6875,695.0031 L262.0781,695.5813 Q261.8906,696.3625 261.5469,697.0031 Q261.2188,697.6281 260.7031,698.0813 Q260.2031,698.5344 259.5,698.7688 Q258.7969,699.0031 257.875,699.0031 Z " fill="#000000"/><text fill="#000000" font-family="sans-serif" font-size="14" lengthAdjust="spacing" textLength="77" x="272" y="698.05">RealColumn</text><rect fill="#FFFFFF" height="17.6001" style="stroke:#181818;stroke-width:1.0;stroke-dasharray:2.0,2.0;" width="94" x="357" y="673.8"/><text fill="#000000" font-family="sans-serif" font-size="12" font-style="italic" lengthAdjust="spacing" textLength="92" x="358" y="687.1001">T extends double</text><line style="stroke:#181818;stroke-width:0.5;" x1="244" x2="447" y1="708.8" y2="708.8"/><line style="stroke:#181818;stroke-width:0.5;" x1="244" x2="447" y1="716.8" y2="716.8"/></g><!--class CharacterColumn--><g id="elem_CharacterColumn"><rect codeLine="45" fill="#F1F1F1" height="48" id="CharacterColumn" rx="2.5" ry="2.5" style="stroke:#181818;stroke-width:0.5;" width="253" x="111" y="821.2"/><ellipse cx="126" cy="837.2" fill="#ADD1B2" rx="11" ry="11" style="stroke:#181818;stroke-width:1.0;"/><path d="M125.875,843.4031 Q123.4844,843.4031 122.3438,841.7937 Q121.2031,840.1844 121.2031,837.2625 Q121.2031,834.3406 122.3438,832.7469 Q123.4844,831.1375 125.875,831.1375 Q126.7969,831.1375 127.5,831.3875 Q128.2031,831.6219 128.7031,832.075 Q129.2188,832.5125 129.5469,833.1375 Q129.8906,833.7625 130.0781,834.5437 L127.6875,835.1219 Q127.5938,834.7 127.4531,834.3406 Q127.3125,833.9812 127.0938,833.7312 Q126.8906,833.4812 126.5781,833.3406 Q126.2656,833.1844 125.8281,833.1844 Q124.7813,833.1844 124.3438,833.9969 Q123.9219,834.8094 123.9219,836.2312 L123.9219,838.3094 Q123.9219,839.7312 124.3438,840.5437 Q124.7813,841.3406 125.8281,841.3406 Q126.7031,841.3406 127.0938,840.8094 Q127.5,840.2625 127.6875,839.4031 L130.0781,839.9812 Q129.8906,840.7625 129.5469,841.4031 Q129.2188,842.0281 128.7031,842.4812 Q128.2031,842.9344 127.5,843.1687 Q126.7969,843.4031 125.875,843.4031 Z " fill="#000000"/><text fill="#000000" font-family="sans-serif" font-size="14" lengthAdjust="spacing" textLength="110" x="140" y="842.45">CharacterColumn</text><rect fill="#FFFFFF" height="17.6001" style="stroke:#181818;stroke-width:1.0;stroke-dasharray:2.0,2.0;" width="109" x="258" y="818.2"/><text fill="#000000" font-family="sans-serif" font-size="12" font-style="italic" lengthAdjust="spacing" textLength="107" x="259" y="831.5001">T extends Character</text><line style="stroke:#181818;stroke-width:0.5;" x1="112" x2="363" y1="853.2" y2="853.2"/><line style="stroke:#181818;stroke-width:0.5;" x1="112" x2="363" y1="861.2" y2="861.2"/></g><!--class CharacterIntervalColumn--><g id="elem_CharacterIntervalColumn"><rect codeLine="46" fill="#F1F1F1" height="48" id="CharacterIntervalColumn" rx="2.5" ry="2.5" style="stroke:#181818;stroke-width:0.5;" width="345" x="399" y="821.2"/><ellipse cx="414" cy="837.2" fill="#ADD1B2" rx="11" ry="11" style="stroke:#181818;stroke-width:1.0;"/><path d="M413.875,843.4031 Q411.4844,843.4031 410.3438,841.7937 Q409.2031,840.1844 409.2031,837.2625 Q409.2031,834.3406 410.3438,832.7469 Q411.4844,831.1375 413.875,831.1375 Q414.7969,831.1375 415.5,831.3875 Q416.2031,831.6219 416.7031,832.075 Q417.2188,832.5125 417.5469,833.1375 Q417.8906,833.7625 418.0781,834.5437 L415.6875,835.1219 Q415.5938,834.7 415.4531,834.3406 Q415.3125,833.9812 415.0938,833.7312 Q414.8906,833.4812 414.5781,833.3406 Q414.2656,833.1844 413.8281,833.1844 Q412.7813,833.1844 412.3438,833.9969 Q411.9219,834.8094 411.9219,836.2312 L411.9219,838.3094 Q411.9219,839.7312 412.3438,840.5437 Q412.7813,841.3406 413.8281,841.3406 Q414.7031,841.3406 415.0938,840.8094 Q415.5,840.2625 415.6875,839.4031 L418.0781,839.9812 Q417.8906,840.7625 417.5469,841.4031 Q417.2188,842.0281 416.7031,842.4812 Q416.2031,842.9344 415.5,843.1687 Q414.7969,843.4031 413.875,843.4031 Z " fill="#000000"/><text fill="#000000" font-family="sans-serif" font-size="14" lengthAdjust="spacing" textLength="160" x="428" y="842.45">CharacterIntervalColumn</text><rect fill="#FFFFFF" height="17.6001" style="stroke:#181818;stroke-width:1.0;stroke-dasharray:2.0,2.0;" width="151" x="596" y="818.2"/><text fill="#000000" font-family="sans-serif" font-size="12" font-style="italic" lengthAdjust="spacing" textLength="149" x="597" y="831.5001">T extends CharacterInterval</text><line style="stroke:#181818;stroke-width:0.5;" x1="400" x2="743" y1="853.2" y2="853.2"/><line style="stroke:#181818;stroke-width:0.5;" x1="400" x2="743" y1="861.2" y2="861.2"/></g><!--class CharacterIntervalStringColumn--><g id="elem_CharacterIntervalStringColumn"><rect codeLine="47" fill="#F1F1F1" height="48" id="CharacterIntervalStringColumn" rx="2.5" ry="2.5" style="stroke:#181818;stroke-width:0.5;" width="413" x="672" y="676.8"/><ellipse cx="687" cy="692.8" fill="#ADD1B2" rx="11" ry="11" style="stroke:#181818;stroke-width:1.0;"/><path d="M686.875,699.0031 Q684.4844,699.0031 683.3438,697.3938 Q682.2031,695.7844 682.2031,692.8625 Q682.2031,689.9406 683.3438,688.3469 Q684.4844,686.7375 686.875,686.7375 Q687.7969,686.7375 688.5,686.9875 Q689.2031,687.2219 689.7031,687.675 Q690.2188,688.1125 690.5469,688.7375 Q690.8906,689.3625 691.0781,690.1438 L688.6875,690.7219 Q688.5938,690.3 688.4531,689.9406 Q688.3125,689.5813 688.0938,689.3313 Q687.8906,689.0813 687.5781,688.9406 Q687.2656,688.7844 686.8281,688.7844 Q685.7813,688.7844 685.3438,689.5969 Q684.9219,690.4094 684.9219,691.8313 L684.9219,693.9094 Q684.9219,695.3313 685.3438,696.1438 Q685.7813,696.9406 686.8281,696.9406 Q687.7031,696.9406 688.0938,696.4094 Q688.5,695.8625 688.6875,695.0031 L691.0781,695.5813 Q690.8906,696.3625 690.5469,697.0031 Q690.2188,697.6281 689.7031,698.0813 Q689.2031,698.5344 688.5,698.7688 Q687.7969,699.0031 686.875,699.0031 Z " fill="#000000"/><text fill="#000000" font-family="sans-serif" font-size="14" lengthAdjust="spacing" textLength="197" x="701" y="698.05">CharacterIntervalStringColumn</text><rect fill="#FFFFFF" height="17.6001" style="stroke:#181818;stroke-width:1.0;stroke-dasharray:2.0,2.0;" width="182" x="906" y="673.8"/><text fill="#000000" font-family="sans-serif" font-size="12" font-style="italic" lengthAdjust="spacing" textLength="180" x="907" y="687.1001">T extends CharacterIntervalString</text><line style="stroke:#181818;stroke-width:0.5;" x1="673" x2="1084" y1="708.8" y2="708.8"/><line style="stroke:#181818;stroke-width:0.5;" x1="673" x2="1084" y1="716.8" y2="716.8"/></g><!--class Table--><g id="elem_Table"><rect codeLine="59" fill="#F1F1F1" height="157.1995" id="Table" rx="2.5" ry="2.5" style="stroke:#181818;stroke-width:0.5;" width="262" x="512.5" y="169.6"/><ellipse cx="621.75" cy="185.6" fill="#ADD1B2" rx="11" ry="11" style="stroke:#181818;stroke-width:1.0;"/><path d="M621.625,191.8031 Q619.2344,191.8031 618.0938,190.1937 Q616.9531,188.5844 616.9531,185.6625 Q616.9531,182.7406 618.0938,181.1469 Q619.2344,179.5375 621.625,179.5375 Q622.5469,179.5375 623.25,179.7875 Q623.9531,180.0219 624.4531,180.475 Q624.9688,180.9125 625.2969,181.5375 Q625.6406,182.1625 625.8281,182.9437 L623.4375,183.5219 Q623.3438,183.1 623.2031,182.7406 Q623.0625,182.3812 622.8438,182.1312 Q622.6406,181.8812 622.3281,181.7406 Q622.0156,181.5844 621.5781,181.5844 Q620.5313,181.5844 620.0938,182.3969 Q619.6719,183.2094 619.6719,184.6312 L619.6719,186.7094 Q619.6719,188.1312 620.0938,188.9437 Q620.5313,189.7406 621.5781,189.7406 Q622.4531,189.7406 622.8438,189.2094 Q623.25,188.6625 623.4375,187.8031 L625.8281,188.3812 Q625.6406,189.1625 625.2969,189.8031 Q624.9688,190.4281 624.4531,190.8812 Q623.9531,191.3344 623.25,191.5687 Q622.5469,191.8031 621.625,191.8031 Z " fill="#000000"/><text fill="#000000" font-family="sans-serif" font-size="14" lengthAdjust="spacing" textLength="35" x="642.25" y="190.85">Table</text><line style="stroke:#181818;stroke-width:0.5;" x1="513.5" x2="773.5" y1="201.6" y2="201.6"/><line style="stroke:#181818;stroke-width:0.5;" x1="513.5" x2="773.5" y1="209.6" y2="209.6"/><ellipse cx="523.5" cy="224.2" fill="#84BE84" rx="3" ry="3" style="stroke:#038048;stroke-width:1.0;"/><text fill="#000000" font-family="sans-serif" font-size="14" lengthAdjust="spacing" textLength="108" x="532.5" y="227.9499">String get name()</text><ellipse cx="523.5" cy="242.3999" fill="#84BE84" rx="3" ry="3" style="stroke:#038048;stroke-width:1.0;"/><text fill="#000000" font-family="sans-serif" font-size="14" lengthAdjust="spacing" textLength="236" x="532.5" y="246.1499">List&lt;Column&lt;Object&gt;&gt; get columns()</text><ellipse cx="523.5" cy="260.5998" fill="#84BE84" rx="3" ry="3" style="stroke:#038048;stroke-width:1.0;"/><text fill="#000000" font-family="sans-serif" font-size="14" lengthAdjust="spacing" textLength="135" x="532.5" y="264.3498">void set name(String)</text><ellipse cx="523.5" cy="278.7997" fill="#84BE84" rx="3" ry="3" style="stroke:#038048;stroke-width:1.0;"/><text fill="#000000" font-family="sans-serif" font-size="14" lengthAdjust="spacing" textLength="156" x="532.5" y="282.5497">void removeFrom(Table)</text><ellipse cx="523.5" cy="296.9996" fill="#84BE84" rx="3" ry="3" style="stroke:#038048;stroke-width:1.0;"/><text fill="#000000" font-family="sans-serif" font-size="14" lengthAdjust="spacing" textLength="98" x="532.5" y="300.7496">Object toJson()</text><ellipse cx="523.5" cy="315.1996" fill="#84BE84" rx="3" ry="3" style="stroke:#038048;stroke-width:1.0;"/><text fill="#000000" font-family="sans-serif" font-size="14" lengthAdjust="spacing" text-decoration="underline" textLength="157" x="532.5" y="318.9495">Table fromJson(Object?)</text></g><!--class Database--><g id="elem_Database"><rect codeLine="70" fill="#F1F1F1" height="102.5998" id="Database" rx="2.5" ry="2.5" style="stroke:#181818;stroke-width:0.5;" width="206" x="540.5" y="7"/><ellipse cx="610.25" cy="23" fill="#ADD1B2" rx="11" ry="11" style="stroke:#181818;stroke-width:1.0;"/><path d="M610.125,29.2031 Q607.7344,29.2031 606.5938,27.5938 Q605.4531,25.9844 605.4531,23.0625 Q605.4531,20.1406 606.5938,18.5469 Q607.7344,16.9375 610.125,16.9375 Q611.0469,16.9375 611.75,17.1875 Q612.4531,17.4219 612.9531,17.875 Q613.4688,18.3125 613.7969,18.9375 Q614.1406,19.5625 614.3281,20.3438 L611.9375,20.9219 Q611.8438,20.5 611.7031,20.1406 Q611.5625,19.7813 611.3438,19.5313 Q611.1406,19.2813 610.8281,19.1406 Q610.5156,18.9844 610.0781,18.9844 Q609.0313,18.9844 608.5938,19.7969 Q608.1719,20.6094 608.1719,22.0313 L608.1719,24.1094 Q608.1719,25.5313 608.5938,26.3438 Q609.0313,27.1406 610.0781,27.1406 Q610.9531,27.1406 611.3438,26.6094 Q611.75,26.0625 611.9375,25.2031 L614.3281,25.7813 Q614.1406,26.5625 613.7969,27.2031 Q613.4688,27.8281 612.9531,28.2813 Q612.4531,28.7344 611.75,28.9688 Q611.0469,29.2031 610.125,29.2031 Z " fill="#000000"/><text fill="#000000" font-family="sans-serif" font-size="14" lengthAdjust="spacing" textLength="58" x="630.75" y="28.25">Database</text><line style="stroke:#181818;stroke-width:0.5;" x1="541.5" x2="745.5" y1="39" y2="39"/><line style="stroke:#181818;stroke-width:0.5;" x1="541.5" x2="745.5" y1="47" y2="47"/><ellipse cx="551.5" cy="61.6" fill="#84BE84" rx="3" ry="3" style="stroke:#038048;stroke-width:1.0;"/><text fill="#000000" font-family="sans-serif" font-size="14" lengthAdjust="spacing" textLength="149" x="560.5" y="65.3499">List&lt;Table&gt; get tables()</text><ellipse cx="551.5" cy="79.7999" fill="#84BE84" rx="3" ry="3" style="stroke:#038048;stroke-width:1.0;"/><text fill="#000000" font-family="sans-serif" font-size="14" lengthAdjust="spacing" textLength="98" x="560.5" y="83.5499">Object toJson()</text><ellipse cx="551.5" cy="97.9998" fill="#84BE84" rx="3" ry="3" style="stroke:#038048;stroke-width:1.0;"/><text fill="#000000" font-family="sans-serif" font-size="14" lengthAdjust="spacing" text-decoration="underline" textLength="180" x="560.5" y="101.7498">Database fromJson(Object?)</text></g><!--class Row--><g id="elem_Row"><rect codeLine="78" fill="#F1F1F1" height="66.1999" id="Row" rx="2.5" ry="2.5" style="stroke:#181818;stroke-width:0.5;" width="173" x="700" y="468.7"/><ellipse cx="768.25" cy="484.7" fill="#ADD1B2" rx="11" ry="11" style="stroke:#181818;stroke-width:1.0;"/><path d="M768.125,490.9031 Q765.7344,490.9031 764.5938,489.2937 Q763.4531,487.6844 763.4531,484.7625 Q763.4531,481.8406 764.5938,480.2469 Q765.7344,478.6375 768.125,478.6375 Q769.0469,478.6375 769.75,478.8875 Q770.4531,479.1219 770.9531,479.575 Q771.4688,480.0125 771.7969,480.6375 Q772.1406,481.2625 772.3281,482.0437 L769.9375,482.6219 Q769.8438,482.2 769.7031,481.8406 Q769.5625,481.4812 769.3438,481.2312 Q769.1406,480.9812 768.8281,480.8406 Q768.5156,480.6844 768.0781,480.6844 Q767.0313,480.6844 766.5938,481.4969 Q766.1719,482.3094 766.1719,483.7312 L766.1719,485.8094 Q766.1719,487.2312 766.5938,488.0437 Q767.0313,488.8406 768.0781,488.8406 Q768.9531,488.8406 769.3438,488.3094 Q769.75,487.7625 769.9375,486.9031 L772.3281,487.4812 Q772.1406,488.2625 771.7969,488.9031 Q771.4688,489.5281 770.9531,489.9812 Q770.4531,490.4344 769.75,490.6687 Q769.0469,490.9031 768.125,490.9031 Z " fill="#000000"/><text fill="#000000" font-family="sans-serif" font-size="14" lengthAdjust="spacing" textLength="28" x="788.75" y="489.95">Row</text><line style="stroke:#181818;stroke-width:0.5;" x1="701" x2="872" y1="500.7" y2="500.7"/><line style="stroke:#181818;stroke-width:0.5;" x1="701" x2="872" y1="508.7" y2="508.7"/><ellipse cx="711" cy="523.3" fill="#84BE84" rx="3" ry="3" style="stroke:#038048;stroke-width:1.0;"/><text fill="#000000" font-family="sans-serif" font-size="14" lengthAdjust="spacing" textLength="147" x="720" y="527.0499">List&lt;Object&gt; get cells()</text></g><!--reverse link CharacterInterval to Character--><g id="link_CharacterInterval_Character"><path codeLine="19" d="M515.5,1134.66 C505.49,1150.66 495.2,1167.1 485.62,1182.4 " fill="none" id="CharacterInterval-backto-Character" style="stroke:#181818;stroke-width:1.0;"/><polygon fill="none" points="522.73,1124.12,516.1549,1127.0811,516.3593,1134.2893,522.9344,1131.3282,522.73,1124.12" style="stroke:#181818;stroke-width:1.0;"/></g><!--reverse link CharacterIntervalString to CharacterInterval--><g id="link_CharacterIntervalString_CharacterInterval"><path codeLine="28" d="M807.75,912.47 C773.5,931.42 736.01,952.17 701.19,971.44 " fill="none" id="CharacterIntervalString-backto-CharacterInterval" style="stroke:#181818;stroke-width:1.0;"/><polygon fill="none" points="818.72,905.84,811.5332,905.2488,808.2233,911.6554,815.4101,912.2466,818.72,905.84" style="stroke:#181818;stroke-width:1.0;"/></g><!--reverse link Column to IntegerColumn--><g id="link_Column_IntegerColumn"><path codeLine="49" d="M316.68,594.95 C256.56,625.08 194.86,656.01 154.2,676.39 " fill="none" id="Column-backto-IntegerColumn" style="stroke:#181818;stroke-width:1.0;"/><polygon fill="none" points="313.24,588.34,334.26,585.63,319.51,600.85,313.24,588.34" style="stroke:#181818;stroke-width:1.0;"/></g><!--reverse link Column to RealColumn--><g id="link_Column_RealColumn"><path codeLine="50" d="M397.67,633.5 C384.78,649.87 372.95,664.91 363.82,676.51 " fill="none" id="Column-backto-RealColumn" style="stroke:#181818;stroke-width:1.0;"/><polygon fill="none" points="392.69,629.5,410.56,618.11,403.69,638.16,392.69,629.5" style="stroke:#181818;stroke-width:1.0;"/></g><!--reverse link Column to CharacterColumn--><g id="link_Column_CharacterColumn"><path codeLine="51" d="M499.34,637.81 C493.84,668.56 483.61,699.57 465.5,724.8 C444.08,754.66 356.04,795.45 295.85,820.79 " fill="none" id="Column-backto-CharacterColumn" style="stroke:#181818;stroke-width:1.0;"/><polygon fill="none" points="492.54,636.95,502.37,618.18,506.39,638.98,492.54,636.95" style="stroke:#181818;stroke-width:1.0;"/></g><!--reverse link Column to CharacterIntervalColumn--><g id="link_Column_CharacterIntervalColumn"><path codeLine="52" d="M528.51,637.48 C542.79,706.16 558.77,782.99 566.61,820.71 " fill="none" id="Column-backto-CharacterIntervalColumn" style="stroke:#181818;stroke-width:1.0;"/><polygon fill="none" points="521.46,638.96,524.24,617.96,535.17,636.11,521.46,638.96" style="stroke:#181818;stroke-width:1.0;"/></g><!--reverse link Column to CharacterIntervalStringColumn--><g id="link_Column_CharacterIntervalStringColumn"><path codeLine="53" d="M684.19,617.35 C736.56,643.89 781.34,662.61 816.43,676.45 " fill="none" id="Column-backto-CharacterIntervalStringColumn" style="stroke:#181818;stroke-width:1.0;"/><polygon fill="none" points="681.32,623.23,666.75,607.84,687.73,610.79,681.32,623.23" style="stroke:#181818;stroke-width:1.0;"/></g><!--reverse link CharacterColumn to Character--><g id="link_CharacterColumn_Character"><path codeLine="55" d="M255.5,881.77 C289.48,948.92 363.62,1095.42 407.65,1182.44 " fill="none" id="CharacterColumn-backto-Character" style="stroke:#181818;stroke-width:1.0;"/><polygon fill="none" points="249.26,870.44,248.4007,877.5997,254.6792,881.1466,255.5385,873.9869,249.26,870.44" style="stroke:#181818;stroke-width:1.0;"/></g><!--reverse link CharacterIntervalColumn to CharacterInterval--><g id="link_CharacterIntervalColumn_CharacterInterval"><path codeLine="56" d="M571.5,883.26 C571.5,906.42 571.5,937.12 571.5,965.43 " fill="none" id="CharacterIntervalColumn-backto-CharacterInterval" style="stroke:#181818;stroke-width:1.0;"/><polygon fill="none" points="571.5,870.57,567.5,876.57,571.5,882.57,575.5,876.57,571.5,870.57" style="stroke:#181818;stroke-width:1.0;"/></g><!--reverse link CharacterIntervalStringColumn to CharacterIntervalString--><g id="link_CharacterIntervalStringColumn_CharacterIntervalString"><path codeLine="57" d="M891.01,738.15 C895.85,752.23 901.53,768.72 906.94,784.45 " fill="none" id="CharacterIntervalStringColumn-backto-CharacterIntervalString" style="stroke:#181818;stroke-width:1.0;"/><polygon fill="none" points="886.48,726,884.6505,732.9752,890.3854,737.3467,892.2149,730.3716,886.48,726" style="stroke:#181818;stroke-width:1.0;"/></g><!--reverse link Table to Column--><g id="link_Table_Column"><path codeLine="68" d="M592.37,339.16 C583.68,354.45 574.55,370.51 565.56,386.33 " fill="none" id="Table-backto-Column" style="stroke:#181818;stroke-width:1.0;"/><polygon fill="none" points="599.23,328.09,592.7881,331.3307,593.3019,338.5235,599.7438,335.2828,599.23,328.09" style="stroke:#181818;stroke-width:1.0;"/></g><!--reverse link Database to Table--><g id="link_Database_Table"><path codeLine="76" d="M643.5,123.45 C643.5,138.25 643.5,154.15 643.5,169.46 " fill="none" id="Database-backto-Table" style="stroke:#181818;stroke-width:1.0;"/><polygon fill="none" points="643.5,110.66,639.5,116.66,643.5,122.66,647.5,116.66,643.5,110.66" style="stroke:#181818;stroke-width:1.0;"/></g><!--link Table to Row--><g id="link_Table_Row"><path codeLine="82" d="M687.77,327.09 C713.49,372.34 744.74,427.32 765.1,463.14 " fill="none" id="Table-to-Row" style="stroke:#181818;stroke-width:1.0;"/><polygon fill="#181818" points="768.02,467.29,767.0451,457.4895,765.547,462.9444,760.0921,461.4463,768.02,467.29" style="stroke:#181818;stroke-width:1.0;"/></g><!--SRC=[dLJBJiCm4BpdAonnQGNvWyezj4828I6L_82RR4jG6bVsfe1A_nt7hyGuAO4UsjGpwvtPx6vUCId9wfK9bYC8Saw8-joIiaQo1oGvBs0sjuSdNXP4kbD5SS0BYhBUwu0Jgvekuddx1ZaIv8-Ir_xqB95XcLzwUNU27pJ7H2pdoIL9yb3SGws-rFrUP1VUPbQN2lGvGWpg8dPX0ZmnmjkW29tgo8iTT1RJU9fsmQFMRQ5T0PvAYOk8HBNbqlwJiV4E6hdWlsQjl6cMBJamxh0aOLk9xHcnbU1LSwWN6O4FLEz5McbBwclHwy6Q7ReMr1OpKvCSgg5wQBw93p1M56lOiQR2oGrjP1eMZGj1TC0DoPRao8I4bHBKLSbWPsVzqlU4dqTOTSCOq3AI2s08eTZK5utQRDRZ7N6_kZQkahsHQr_37aHKTDKur58smAe8BtYphO3-xDw8vn4wrkZZ8Rv9hy_8xnSO7bMTgQbayQKwCN0U89tXuFY7oM4iT7MTqvVVcneR4ww9aGGZCtKrrN2CORYso9XwkzC6BXm4Ettwx0_p9-30Jt2lXcYcKqySGYDpS0aPI5kr1JRErWpPbaa8Dwjc6-tOFigfQy1VDoZ2ewqEdSF9sF3tK85R9FtbvMsaAMqZacy0]--></g></svg>