<?xml version="1.0" encoding="us-ascii" standalone="no"?><svg xmlns="http://www.w3.org/2000/svg" xmlns:xlink="http://www.w3.org/1999/xlink" contentStyleType="text/css" height="327px" preserveAspectRatio="none" style="width:779px;height:327px;background:#FFFFFF;" version="1.1" viewBox="0 0 779 327" width="779px" zoomAndPan="magnify"><defs/><g><!--entity core--><g id="elem_core"><rect fill="#F1F1F1" height="48.1999" rx="2.5" ry="2.5" style="stroke:#181818;stroke-width:0.5;" width="113" x="135" y="7"/><rect fill="#F1F1F1" height="10" style="stroke:#181818;stroke-width:0.5;" width="15" x="228" y="12"/><rect fill="#F1F1F1" height="2" style="stroke:#181818;stroke-width:0.5;" width="4" x="226" y="14"/><rect fill="#F1F1F1" height="2" style="stroke:#181818;stroke-width:0.5;" width="4" x="226" y="18"/><text fill="#000000" font-family="sans-serif" font-size="14" lengthAdjust="spacing" textLength="73" x="150" y="41.3499">&#1071;&#1076;&#1088;&#1086; &#1057;&#1050;&#1041;&#1044;</text></g><!--entity diff--><g id="elem_diff"><ellipse cx="70.5" cy="164.2" fill="#F1F1F1" rx="8" ry="8" style="stroke:#181818;stroke-width:0.5;"/><text fill="#000000" font-family="sans-serif" font-size="14" lengthAdjust="spacing" textLength="129" x="6" y="195.5499">API &#1088;&#1110;&#1079;&#1085;&#1080;&#1094;&#1110; &#1090;&#1072;&#1073;&#1083;&#1080;&#1094;&#1100;</text></g><!--entity json--><g id="elem_json"><ellipse cx="311.5" cy="164.2" fill="#F1F1F1" rx="8" ry="8" style="stroke:#181818;stroke-width:0.5;"/><text fill="#000000" font-family="sans-serif" font-size="14" lengthAdjust="spacing" textLength="252" x="185.5" y="195.5499">API JSON &#1089;&#1077;&#1088;&#1110;&#1072;&#1083;&#1110;&#1079;&#1072;&#1094;&#1110;&#1111; &#1090;&#1072; &#1076;&#1077;&#1089;&#1077;&#1088;&#1110;&#1072;&#1083;&#1110;&#1079;&#1072;&#1094;&#1110;&#1111;</text></g><!--entity gui--><g id="elem_gui"><rect fill="#F1F1F1" height="48.1999" rx="2.5" ry="2.5" style="stroke:#181818;stroke-width:0.5;" width="224" x="199.5" y="273.2"/><rect fill="#F1F1F1" height="10" style="stroke:#181818;stroke-width:0.5;" width="15" x="403.5" y="278.2"/><rect fill="#F1F1F1" height="2" style="stroke:#181818;stroke-width:0.5;" width="4" x="401.5" y="280.2"/><rect fill="#F1F1F1" height="2" style="stroke:#181818;stroke-width:0.5;" width="4" x="401.5" y="284.2"/><text fill="#000000" font-family="sans-serif" font-size="14" lengthAdjust="spacing" textLength="184" x="214.5" y="307.5499">&#1051;&#1086;&#1082;&#1072;&#1083;&#1100;&#1085;&#1080;&#1081; &#1110;&#1085;&#1090;&#1077;&#1088;&#1092;&#1077;&#1081;&#1089; &#1057;&#1050;&#1041;&#1044;</text></g><!--entity flutter--><g id="elem_flutter"><rect fill="#F1F1F1" height="48.1999" rx="2.5" ry="2.5" style="stroke:#181818;stroke-width:0.5;" width="219" x="521" y="7"/><rect fill="#F1F1F1" height="10" style="stroke:#181818;stroke-width:0.5;" width="15" x="720" y="12"/><rect fill="#F1F1F1" height="2" style="stroke:#181818;stroke-width:0.5;" width="4" x="718" y="14"/><rect fill="#F1F1F1" height="2" style="stroke:#181818;stroke-width:0.5;" width="4" x="718" y="18"/><text fill="#000000" font-family="sans-serif" font-size="14" lengthAdjust="spacing" textLength="179" x="536" y="41.3499">&#1043;&#1088;&#1072;&#1092;&#1110;&#1095;&#1085;&#1072; &#1073;&#1110;&#1073;&#1083;&#1110;&#1086;&#1090;&#1077;&#1082;&#1072; Flutter</text></g><!--entity guiApi--><g id="elem_guiApi"><ellipse cx="630.5" cy="164.2" fill="#F1F1F1" rx="8" ry="8" style="stroke:#181818;stroke-width:0.5;"/><text fill="#000000" font-family="sans-serif" font-size="14" lengthAdjust="spacing" textLength="284" x="488.5" y="195.5499">API &#1087;&#1086;&#1073;&#1091;&#1076;&#1086;&#1074;&#1080; &#1082;&#1086;&#1088;&#1080;&#1089;&#1090;&#1091;&#1074;&#1072;&#1094;&#1100;&#1082;&#1086;&#1075;&#1086; &#1110;&#1085;&#1090;&#1077;&#1088;&#1092;&#1077;&#1081;&#1089;&#1091;</text></g><!--link core to diff--><g id="link_core_diff"><path d="M169.87,55.54 C143.98,83.59 101.61,129.49 81.61,151.16 " fill="none" id="core-to-diff" style="stroke:#181818;stroke-width:1.0;"/><polygon fill="#181818" points="78.7,154.4,87.7418,150.4955,82.0896,150.7243,81.8608,145.0721,78.7,154.4" style="stroke:#181818;stroke-width:1.0;"/><text fill="#000000" font-family="sans-serif" font-size="13" lengthAdjust="spacing" textLength="38" x="143.5" y="99.525">&#1053;&#1072;&#1076;&#1072;&#1108;</text></g><!--link core to json--><g id="link_core_json"><path d="M212.95,55.54 C238.63,83.59 280.65,129.49 300.48,151.16 " fill="none" id="core-to-json" style="stroke:#181818;stroke-width:1.0;"/><polygon fill="#181818" points="303.36,154.4,300.2369,145.0594,299.9853,150.7107,294.334,150.459,303.36,154.4" style="stroke:#181818;stroke-width:1.0;"/><text fill="#000000" font-family="sans-serif" font-size="13" lengthAdjust="spacing" textLength="38" x="256.5" y="99.525">&#1053;&#1072;&#1076;&#1072;&#1108;</text></g><!--reverse link diff to gui--><g id="link_diff_gui"><path d="M84.5,172.81 C119.69,191.96 212.98,242.71 268.4,272.85 " fill="none" id="diff-backto-gui" style="stroke:#181818;stroke-width:1.0;"/><polygon fill="#181818" points="80.36,170.02,86.3652,177.8262,84.7555,172.4033,90.1784,170.7935,80.36,170.02" style="stroke:#181818;stroke-width:1.0;"/><text fill="#000000" font-family="sans-serif" font-size="13" lengthAdjust="spacing" textLength="86" x="214.5" y="239.525">&#1042;&#1080;&#1082;&#1086;&#1088;&#1080;&#1089;&#1090;&#1086;&#1074;&#1091;&#1108;</text></g><!--reverse link json to gui--><g id="link_json_gui"><path d="M311.5,178.93 C311.5,201.22 311.5,245.53 311.5,272.88 " fill="none" id="json-backto-gui" style="stroke:#181818;stroke-width:1.0;"/><polygon fill="#181818" points="311.5,174.01,307.5,183.01,311.5,179.01,315.5,183.01,311.5,174.01" style="stroke:#181818;stroke-width:1.0;"/><text fill="#000000" font-family="sans-serif" font-size="13" lengthAdjust="spacing" textLength="86" x="312.5" y="239.525">&#1042;&#1080;&#1082;&#1086;&#1088;&#1080;&#1089;&#1090;&#1086;&#1074;&#1091;&#1108;</text></g><!--link flutter to guiApi--><g id="link_flutter_guiApi"><path d="M630.5,55.54 C630.5,82.89 630.5,127.2 630.5,149.48 " fill="none" id="flutter-to-guiApi" style="stroke:#181818;stroke-width:1.0;"/><polygon fill="#181818" points="630.5,154.4,634.5,145.4,630.5,149.4,626.5,145.4,630.5,154.4" style="stroke:#181818;stroke-width:1.0;"/><text fill="#000000" font-family="sans-serif" font-size="13" lengthAdjust="spacing" textLength="38" x="631.5" y="99.525">&#1053;&#1072;&#1076;&#1072;&#1108;</text></g><!--reverse link guiApi to gui--><g id="link_guiApi_gui"><path d="M616.17,171.09 C573.32,188.7 444.39,241.68 368.69,272.8 " fill="none" id="guiApi-backto-gui" style="stroke:#181818;stroke-width:1.0;"/><polygon fill="#181818" points="620.64,168.84,610.7949,168.568,616.0166,170.7437,613.8409,175.9655,620.64,168.84" style="stroke:#181818;stroke-width:1.0;"/><text fill="#000000" font-family="sans-serif" font-size="13" lengthAdjust="spacing" textLength="86" x="482.5" y="239.525">&#1042;&#1080;&#1082;&#1086;&#1088;&#1080;&#1089;&#1090;&#1086;&#1074;&#1091;&#1108;</text></g><!--SRC=[ZL6zIiDm4D_p54Sc7V828a8NGGSjE0O7qKOYOgKVUsEBBbdKKa5ny0bCQeffI-Ch_EwDlBk6QX3HBV-xt-V5noioxg4WlE0HjnWUqb6RZfkjXhEsJcwjlaFSun7UiK3ErpmYlaA257Dxngx2Jy8WMC5t3_RtY2DCZ9TWRkn4kVnWR48csryG9dZMRbuu6e8yRylaQOFmBDXCSCElbGAhAnzFA30psLX3OqgYln1ZzHjWWYb7rRgdtT0naqtFquSgtWbpXa9katCav09Zxek-EVu3v-DUPWaFfDIDv93MgUH8hMsXQJGaRPztEvr6os84o-_L9V4XQYdtfPce8gVlHZ8UsyrYdU9DVk7Fcjntotwroz0fzUrmor7rTENixtAV]--></g></svg>