<?xml version="1.0" encoding="us-ascii" standalone="no"?><svg xmlns="http://www.w3.org/2000/svg" xmlns:xlink="http://www.w3.org/1999/xlink" contentStyleType="text/css" height="593px" preserveAspectRatio="none" style="width:724px;height:593px;background:#FFFFFF;" version="1.1" viewBox="0 0 724 593" width="724px" zoomAndPan="magnify"><defs/><g><!--entity core--><g id="elem_core"><rect fill="#F1F1F1" height="48.1999" rx="2.5" ry="2.5" style="stroke:#181818;stroke-width:0.5;" width="113" x="134" y="7"/><rect fill="#F1F1F1" height="10" style="stroke:#181818;stroke-width:0.5;" width="15" x="227" y="12"/><rect fill="#F1F1F1" height="2" style="stroke:#181818;stroke-width:0.5;" width="4" x="225" y="14"/><rect fill="#F1F1F1" height="2" style="stroke:#181818;stroke-width:0.5;" width="4" x="225" y="18"/><text fill="#000000" font-family="sans-serif" font-size="14" lengthAdjust="spacing" textLength="73" x="149" y="41.3499">&#1071;&#1076;&#1088;&#1086; &#1057;&#1050;&#1041;&#1044;</text></g><!--entity diff--><g id="elem_diff"><ellipse cx="70.5" cy="164.2" fill="#F1F1F1" rx="8" ry="8" style="stroke:#181818;stroke-width:0.5;"/><text fill="#000000" font-family="sans-serif" font-size="14" lengthAdjust="spacing" textLength="129" x="6" y="195.5499">API &#1088;&#1110;&#1079;&#1085;&#1080;&#1094;&#1110; &#1090;&#1072;&#1073;&#1083;&#1080;&#1094;&#1100;</text></g><!--entity json--><g id="elem_json"><ellipse cx="311.5" cy="164.2" fill="#F1F1F1" rx="8" ry="8" style="stroke:#181818;stroke-width:0.5;"/><text fill="#000000" font-family="sans-serif" font-size="14" lengthAdjust="spacing" textLength="252" x="185.5" y="195.5499">API JSON &#1089;&#1077;&#1088;&#1110;&#1072;&#1083;&#1110;&#1079;&#1072;&#1094;&#1110;&#1111; &#1090;&#1072; &#1076;&#1077;&#1089;&#1077;&#1088;&#1110;&#1072;&#1083;&#1110;&#1079;&#1072;&#1094;&#1110;&#1111;</text></g><!--entity server--><g id="elem_server"><rect fill="#F1F1F1" height="48.1999" rx="2.5" ry="2.5" style="stroke:#181818;stroke-width:0.5;" width="129" x="247" y="273.2"/><rect fill="#F1F1F1" height="10" style="stroke:#181818;stroke-width:0.5;" width="15" x="356" y="278.2"/><rect fill="#F1F1F1" height="2" style="stroke:#181818;stroke-width:0.5;" width="4" x="354" y="280.2"/><rect fill="#F1F1F1" height="2" style="stroke:#181818;stroke-width:0.5;" width="4" x="354" y="284.2"/><text fill="#000000" font-family="sans-serif" font-size="14" lengthAdjust="spacing" textLength="89" x="262" y="307.5499">&#1057;&#1077;&#1088;&#1074;&#1077;&#1088; &#1057;&#1050;&#1041;&#1044;</text></g><!--entity rest--><g id="elem_rest"><ellipse cx="515.5" cy="430.4" fill="#F1F1F1" rx="8" ry="8" style="stroke:#181818;stroke-width:0.5;"/><text fill="#000000" font-family="sans-serif" font-size="14" lengthAdjust="spacing" textLength="59" x="486" y="461.7499">REST API</text></g><!--entity graphQl--><g id="elem_graphQl"><ellipse cx="391.5" cy="430.4" fill="#F1F1F1" rx="8" ry="8" style="stroke:#181818;stroke-width:0.5;"/><text fill="#000000" font-family="sans-serif" font-size="14" lengthAdjust="spacing" textLength="81" x="351" y="461.7499">GraphQL API</text></g><!--entity gRpc--><g id="elem_gRpc"><ellipse cx="271.5" cy="430.4" fill="#F1F1F1" rx="8" ry="8" style="stroke:#181818;stroke-width:0.5;"/><text fill="#000000" font-family="sans-serif" font-size="14" lengthAdjust="spacing" textLength="59" x="242" y="461.7499">gRPC API</text></g><!--entity web--><g id="elem_web"><rect fill="#F1F1F1" height="48.1999" rx="2.5" ry="2.5" style="stroke:#181818;stroke-width:0.5;" width="181" x="537" y="539.4"/><rect fill="#F1F1F1" height="10" style="stroke:#181818;stroke-width:0.5;" width="15" x="698" y="544.4"/><rect fill="#F1F1F1" height="2" style="stroke:#181818;stroke-width:0.5;" width="4" x="696" y="546.4"/><rect fill="#F1F1F1" height="2" style="stroke:#181818;stroke-width:0.5;" width="4" x="696" y="550.4"/><text fill="#000000" font-family="sans-serif" font-size="14" lengthAdjust="spacing" textLength="141" x="552" y="573.7499">Web REST &#1079;&#1072;&#1089;&#1090;&#1086;&#1089;&#1091;&#1085;&#1086;&#1082;</text></g><!--entity graph--><g id="elem_graph"><rect fill="#F1F1F1" height="48.1999" rx="2.5" ry="2.5" style="stroke:#181818;stroke-width:0.5;" width="203" x="293" y="539.4"/><rect fill="#F1F1F1" height="10" style="stroke:#181818;stroke-width:0.5;" width="15" x="476" y="544.4"/><rect fill="#F1F1F1" height="2" style="stroke:#181818;stroke-width:0.5;" width="4" x="474" y="546.4"/><rect fill="#F1F1F1" height="2" style="stroke:#181818;stroke-width:0.5;" width="4" x="474" y="550.4"/><text fill="#000000" font-family="sans-serif" font-size="14" lengthAdjust="spacing" textLength="163" x="308" y="573.7499">Web GraphQL &#1079;&#1072;&#1089;&#1090;&#1086;&#1089;&#1091;&#1085;&#1086;&#1082;</text></g><!--entity app--><g id="elem_app"><rect fill="#F1F1F1" height="48.1999" rx="2.5" ry="2.5" style="stroke:#181818;stroke-width:0.5;" width="245" x="13" y="539.4"/><rect fill="#F1F1F1" height="10" style="stroke:#181818;stroke-width:0.5;" width="15" x="238" y="544.4"/><rect fill="#F1F1F1" height="2" style="stroke:#181818;stroke-width:0.5;" width="4" x="236" y="546.4"/><rect fill="#F1F1F1" height="2" style="stroke:#181818;stroke-width:0.5;" width="4" x="236" y="550.4"/><text fill="#000000" font-family="sans-serif" font-size="14" lengthAdjust="spacing" textLength="205" x="28" y="573.7499">&#1052;&#1086;&#1073;&#1110;&#1083;&#1100;&#1085;&#1080;&#1081; GraphQL &#1079;&#1072;&#1089;&#1090;&#1086;&#1089;&#1091;&#1085;&#1086;&#1082;</text></g><!--link core to diff--><g id="link_core_diff"><path d="M169.05,55.54 C143.37,83.59 101.35,129.49 81.52,151.16 " fill="none" id="core-to-diff" style="stroke:#181818;stroke-width:1.0;"/><polygon fill="#181818" points="78.64,154.4,87.666,150.459,82.0147,150.7107,81.7631,145.0594,78.64,154.4" style="stroke:#181818;stroke-width:1.0;"/><text fill="#000000" font-family="sans-serif" font-size="13" lengthAdjust="spacing" textLength="38" x="142.5" y="99.525">&#1053;&#1072;&#1076;&#1072;&#1108;</text></g><!--link core to json--><g id="link_core_json"><path d="M212.13,55.54 C238.02,83.59 280.39,129.49 300.39,151.16 " fill="none" id="core-to-json" style="stroke:#181818;stroke-width:1.0;"/><polygon fill="#181818" points="303.3,154.4,300.1392,145.0721,299.9104,150.7243,294.2582,150.4955,303.3,154.4" style="stroke:#181818;stroke-width:1.0;"/><text fill="#000000" font-family="sans-serif" font-size="13" lengthAdjust="spacing" textLength="38" x="256.5" y="99.525">&#1053;&#1072;&#1076;&#1072;&#1108;</text></g><!--reverse link diff to server--><g id="link_diff_server"><path d="M84.5,172.81 C119.69,191.96 212.98,242.71 268.4,272.86 " fill="none" id="diff-backto-server" style="stroke:#181818;stroke-width:1.0;"/><polygon fill="#181818" points="80.36,170.02,86.3652,177.8262,84.7555,172.4033,90.1784,170.7935,80.36,170.02" style="stroke:#181818;stroke-width:1.0;"/><text fill="#000000" font-family="sans-serif" font-size="13" lengthAdjust="spacing" textLength="86" x="214.5" y="239.525">&#1042;&#1080;&#1082;&#1086;&#1088;&#1080;&#1089;&#1090;&#1086;&#1074;&#1091;&#1108;</text></g><!--reverse link json to server--><g id="link_json_server"><path d="M311.5,178.93 C311.5,201.22 311.5,245.53 311.5,272.88 " fill="none" id="json-backto-server" style="stroke:#181818;stroke-width:1.0;"/><polygon fill="#181818" points="311.5,174.01,307.5,183.01,311.5,179.01,315.5,183.01,311.5,174.01" style="stroke:#181818;stroke-width:1.0;"/><text fill="#000000" font-family="sans-serif" font-size="13" lengthAdjust="spacing" textLength="86" x="312.5" y="239.525">&#1042;&#1080;&#1082;&#1086;&#1088;&#1080;&#1089;&#1090;&#1086;&#1074;&#1091;&#1108;</text></g><!--link server to rest--><g id="link_server_rest"><path d="M353.12,321.7 C368.76,330.72 386.6,341.29 402.5,351.4 C439.19,374.72 480.96,404.4 501.94,419.54 " fill="none" id="server-to-rest" style="stroke:#181818;stroke-width:1.0;"/><polygon fill="#181818" points="505.58,422.89,500.6379,414.3709,501.5308,419.9568,495.9448,420.8496,505.58,422.89" style="stroke:#181818;stroke-width:1.0;"/><text fill="#000000" font-family="sans-serif" font-size="13" lengthAdjust="spacing" textLength="38" x="428.5" y="365.725">&#1053;&#1072;&#1076;&#1072;&#1108;</text></g><!--link server to graphQl--><g id="link_server_graphQl"><path d="M325.8,321.74 C342.71,349.44 370.23,394.54 383.65,416.53 " fill="none" id="server-to-graphQl" style="stroke:#181818;stroke-width:1.0;"/><polygon fill="#181818" points="386.74,420.6,385.4773,410.8324,384.1403,416.329,378.6437,414.992,386.74,420.6" style="stroke:#181818;stroke-width:1.0;"/><text fill="#000000" font-family="sans-serif" font-size="13" lengthAdjust="spacing" textLength="38" x="355.5" y="365.725">&#1053;&#1072;&#1076;&#1072;&#1108;</text></g><!--link server to gRpc--><g id="link_server_gRpc"><path d="M304.35,321.74 C295.97,349.21 282.37,393.78 275.6,415.97 " fill="none" id="server-to-gRpc" style="stroke:#181818;stroke-width:1.0;"/><polygon fill="#181818" points="273.88,420.6,280.3546,413.1784,275.3534,415.822,272.7098,410.8209,273.88,420.6" style="stroke:#181818;stroke-width:1.0;"/><text fill="#000000" font-family="sans-serif" font-size="13" lengthAdjust="spacing" textLength="38" x="296.5" y="365.725">&#1053;&#1072;&#1076;&#1072;&#1108;</text></g><!--reverse link rest to web--><g id="link_rest_web"><path d="M511.75,444.52 C507.85,461.05 503.9,489.68 516.5,509.4 C524.5,521.91 536.33,531.54 549.33,538.93 " fill="none" id="rest-backto-web" style="stroke:#181818;stroke-width:1.0;"/><polygon fill="#181818" points="513.16,440.01,507.0697,447.7501,511.9305,444.8565,514.8241,449.7173,513.16,440.01" style="stroke:#181818;stroke-width:1.0;"/><text fill="#000000" font-family="sans-serif" font-size="13" lengthAdjust="spacing" textLength="86" x="517.5" y="505.725">&#1042;&#1080;&#1082;&#1086;&#1088;&#1080;&#1089;&#1090;&#1086;&#1074;&#1091;&#1108;</text></g><!--reverse link json to web--><g id="link_json_web"><path d="M325.5,172.44 C344.9,182.8 380.59,203.05 407.5,225.2 C489.37,292.58 513.11,310.24 570.5,399.4 C599.48,444.42 615.76,505.95 622.96,539.09 " fill="none" id="json-backto-web" style="stroke:#181818;stroke-width:1.0;"/><polygon fill="#181818" points="321.48,169.79,327.5741,177.5271,325.9024,172.1229,331.3066,170.4512,321.48,169.79" style="stroke:#181818;stroke-width:1.0;"/><text fill="#000000" font-family="sans-serif" font-size="13" lengthAdjust="spacing" textLength="86" x="550.5" y="365.725">&#1042;&#1080;&#1082;&#1086;&#1088;&#1080;&#1089;&#1090;&#1086;&#1074;&#1091;&#1108;</text></g><!--reverse link graphQl to graph--><g id="link_graphQl_graph"><path d="M390.22,444.73 C388.91,460.26 387.22,486.71 388.5,509.4 C389.05,519.13 390.16,529.81 391.27,539.02 " fill="none" id="graphQl-backto-graph" style="stroke:#181818;stroke-width:1.0;"/><polygon fill="#181818" points="390.72,440.15,385.9394,448.7608,390.2776,445.1304,393.908,449.4686,390.72,440.15" style="stroke:#181818;stroke-width:1.0;"/><text fill="#000000" font-family="sans-serif" font-size="13" lengthAdjust="spacing" textLength="86" x="389.5" y="505.725">&#1042;&#1080;&#1082;&#1086;&#1088;&#1080;&#1089;&#1090;&#1086;&#1074;&#1091;&#1108;</text></g><!--reverse link gRpc to app--><g id="link_gRpc_app"><path d="M262.81,443.82 C251.23,459.92 229.6,488.41 207.5,509.4 C196.35,519.99 183.06,530.33 170.94,539.03 " fill="none" id="gRpc-backto-app" style="stroke:#181818;stroke-width:1.0;"/><polygon fill="#181818" points="266.07,440.25,257.5906,445.2599,263.1692,444.3225,264.1066,449.9012,266.07,440.25" style="stroke:#181818;stroke-width:1.0;"/><text fill="#000000" font-family="sans-serif" font-size="13" lengthAdjust="spacing" textLength="86" x="226.5" y="505.725">&#1042;&#1080;&#1082;&#1086;&#1088;&#1080;&#1089;&#1090;&#1086;&#1074;&#1091;&#1108;</text></g><!--reverse link json to app--><g id="link_json_app"><path d="M300.53,177.65 C283.77,197.08 251.41,236.24 229.5,273.2 C176.04,363.37 148.97,487.64 139.51,538.92 " fill="none" id="json-backto-app" style="stroke:#181818;stroke-width:1.0;"/><polygon fill="#181818" points="304.44,174.14,295.5121,178.2984,301.1556,177.91,301.544,183.5535,304.44,174.14" style="stroke:#181818;stroke-width:1.0;"/><text fill="#000000" font-family="sans-serif" font-size="13" lengthAdjust="spacing" textLength="86" x="192.5" y="365.725">&#1042;&#1080;&#1082;&#1086;&#1088;&#1080;&#1089;&#1090;&#1086;&#1074;&#1091;&#1108;</text></g><!--SRC=[ZLB1IW9H5Ds_hxYugiNyG4GG4L54sHYqa1PgenMHmqpKLXDQkId486hH5wGoaYdDDvptHzrx6pK3TJQFkU-SU-uzPruU7uXi3J7X7IzuHEkK2Y6Lge5dLbOfivdT9LkpRNpY6mFxODjaxz515oCjcncXdrsKonFwNkxmW6mTVUthOAJT7UcrpzfDY1YTmr31ox1wRMG9SfmDbQSrmXjp8-Qrff0GPo6JPoUiZ9wSixP2BxZr0gDwwuwJrDB_X066YBbjOEkyOuoURR2QwgUZQW3kTkwOE0Lr4NZXZTxk10N__6X_0bIqlbAiucQtfe3hbun9Pea_aPZrzmTCPERZhFO_d1ElIBga9gxxyzdWlnjZg27TUKLZTAxuvYfLFajuluF7ESoThOwC6HiJOVrUB8rNBhhyY4QsASyKNyid5NoVvqX0CeIhL2uNytu0]--></g></svg>