<?xml version="1.0" encoding="us-ascii" standalone="no"?><svg xmlns="http://www.w3.org/2000/svg" xmlns:xlink="http://www.w3.org/1999/xlink" contentStyleType="text/css" height="196px" preserveAspectRatio="none" style="width:865px;height:196px;background:#FFFFFF;" version="1.1" viewBox="0 0 865 196" width="865px" zoomAndPan="magnify"><defs/><g><!--cluster ??--><g id="cluster_&#1055;&#1050;"><rect fill="none" height="77.2" rx="2.5" ry="2.5" style="stroke:#181818;stroke-width:1.0;" width="106" x="249.5" y="67.5913"/><line style="stroke:#181818;stroke-width:1.0;" x1="249.5" x2="355.5" y1="89.7912" y2="89.7912"/><text fill="#000000" font-family="sans-serif" font-size="14" font-weight="bold" lengthAdjust="spacing" textLength="19" x="293" y="83.9412">&#1055;&#1050;</text></g><!--cluster ????????? ??????--><g id="cluster_&#1040;&#1087;&#1072;&#1088;&#1072;&#1090;&#1085;&#1080;&#1081; &#1089;&#1077;&#1088;&#1074;&#1077;&#1088;"><path d="M410.5493,33.5632 C418.0753,20.3915 429.8364,22.4916 436.6511,34.3063 C445.3052,15.8573 458.5547,17.7047 470.9117,30.2076 C480.3922,16.0803 492.2145,19.3753 500.1824,31.8707 C506.4311,18.2111 520.0593,13.5262 529.4939,28.6234 C537.2266,15.2845 550.5842,14.0089 557.7428,29.1922 C564.6766,14.6778 576.0453,11.0005 588.241,23.1806 C595.8923,10.0666 610.1021,6.6228 618.3568,22.555 C628.7141,6 639.7998,6.2539 649.277,23.3634 C659.167,6.9654 673.4367,9.6024 681.656,25.0614 C692.3808,12.7071 701.6338,12.1478 712.0827,25.3895 C724.0921,12.524 734.212,15.3996 742.3369,29.7135 C753.1815,16.2569 761.6698,17.9878 769.9014,32.3067 C781.4983,15.1247 793.4249,14.2645 805.4709,31.8472 C818.2659,17.9342 830.2728,20.4584 837.5,37.5913 C840.3235,39.0987 840.6691,40.9174 838.4353,43.2593 C851.0437,50.8134 855.352,59.3345 841.7142,70.0955 C856.2009,79.0645 857.2938,92.2934 840.7348,100.2541 C855.2531,107.2571 854.812,116.1778 842.9771,125.5197 C858.3257,143.2497 853.7406,156.712 830.5,160.7913 C832.6746,161.3273 833.2049,163.28 831.7984,164.9374 C823.4071,180.2128 813.1536,177.9702 802.9113,166.9726 C794.0479,180.8818 782.9472,182.7548 772.1196,169.1727 C763.7798,184.2331 751.2044,181.7682 743.0923,168.9358 C736.7515,183.9991 722.2839,182.8117 714.3009,170.674 C705.2269,187.7075 688.5311,185.2628 680.4343,169.66 C673.5465,184.0615 664.0912,187.8222 652.3169,174.6414 C641.5921,189.4551 630.5717,189.0496 621.6084,172.8947 C611.8461,186.6018 597.3544,186.7607 589.2734,171.0469 C579.902,182.7074 569.0514,186.2779 560.4431,170.2521 C549.9861,182.646 540.1083,184.5641 531.4008,168.4686 C522.1778,184.7313 507.0832,183.963 497.4265,168.9397 C487.1018,182.3168 473.7868,180.6112 467.1721,165.0596 C459.2549,179.5597 445.3425,177.6732 437.559,164.9143 C418.0507,182.2489 407.0301,175.0074 398.5,153.7913 C401.5148,153.6924 403.0652,155.0876 401.7114,158.1831 C387.067,148.0979 384.7753,137.5144 401.5074,127.2224 C386.0165,121.927 382.2609,109.4587 393.5532,97.0925 C381.2232,86.3678 380.9673,72.7558 398.5181,66.9533 C383.0571,52.6354 385.035,38.011 405.5,30.5913 C408.1986,29.4258 410.4519,30.3092 410.5493,33.5632 " fill="none" style="stroke:#181818;stroke-width:1.0;"/><text fill="#000000" font-family="sans-serif" font-size="14" font-weight="bold" lengthAdjust="spacing" textLength="129" x="553.5" y="49.9412">&#1040;&#1087;&#1072;&#1088;&#1072;&#1090;&#1085;&#1080;&#1081; &#1089;&#1077;&#1088;&#1074;&#1077;&#1088;</text></g><!--cluster server--><g id="cluster_server"><rect fill="none" height="77.2" rx="2.5" ry="2.5" style="stroke:#181818;stroke-width:1.0;" width="407" x="414.5" y="67.5913"/><line style="stroke:#181818;stroke-width:1.0;" x1="414.5" x2="821.5" y1="89.7912" y2="89.7912"/><text fill="#000000" font-family="sans-serif" font-size="14" font-weight="bold" lengthAdjust="spacing" textLength="92" x="572" y="83.9412">&#1057;&#1077;&#1088;&#1074;&#1077;&#1088; &#1057;&#1050;&#1041;&#1044;</text></g><!--entity browser--><g id="elem_browser"><rect fill="#F1F1F1" height="24.1999" rx="2.5" ry="2.5" style="stroke:#181818;stroke-width:0.5;" width="74" x="265.5" y="104.5913"/><text fill="#000000" font-family="sans-serif" font-size="14" lengthAdjust="spacing" textLength="54" x="275.5" y="121.9412">&#1041;&#1088;&#1072;&#1091;&#1079;&#1077;&#1088;</text></g><!--entity rest--><g id="elem_rest"><rect fill="#F1F1F1" height="24.1999" rx="2.5" ry="2.5" style="stroke:#181818;stroke-width:0.5;" width="171" x="431" y="104.5913"/><text fill="#000000" font-family="sans-serif" font-size="14" lengthAdjust="spacing" textLength="151" x="441" y="121.9412">&#1055;&#1110;&#1076;&#1089;&#1080;&#1089;&#1090;&#1077;&#1084;&#1072; HTTP/REST</text></g><!--entity core--><g id="elem_core"><rect fill="#F1F1F1" height="24.1999" rx="2.5" ry="2.5" style="stroke:#181818;stroke-width:0.5;" width="169" x="637" y="104.5913"/><text fill="#000000" font-family="sans-serif" font-size="14" lengthAdjust="spacing" textLength="149" x="647" y="121.9412">&#1055;&#1110;&#1076;&#1089;&#1080;&#1089;&#1090;&#1077;&#1084;&#1072; &#1103;&#1076;&#1088;&#1072; &#1057;&#1050;&#1041;&#1044;</text></g><!--entity user--><g id="elem_user"><ellipse cx="44.5" cy="86.0913" fill="#F1F1F1" rx="8" ry="8" style="stroke:#181818;stroke-width:0.5;"/><path d="M44.5,94.0913 L44.5,121.0913 M31.5,102.0913 L57.5,102.0913 M44.5,121.0913 L31.5,136.0913 M44.5,121.0913 L57.5,136.0913 " fill="none" style="stroke:#181818;stroke-width:0.5;"/><text fill="#000000" font-family="sans-serif" font-size="14" lengthAdjust="spacing" textLength="77" x="6" y="151.9412">&#1050;&#1086;&#1088;&#1080;&#1089;&#1090;&#1091;&#1074;&#1072;&#1095;</text></g><!--link user to browser--><g id="link_user_browser"><path d="M89.33,116.6913 C137.16,116.6913 212.37,116.6913 259.49,116.6913 " fill="none" id="user-browser" style="stroke:#181818;stroke-width:1.0;"/><polygon fill="#181818" points="84.4,116.6913,93.4,120.6913,89.4,116.6913,93.4,112.6913,84.4,116.6913" style="stroke:#181818;stroke-width:1.0;"/><polygon fill="#181818" points="264.38,116.6913,255.38,112.6913,259.38,116.6913,255.38,120.6913,264.38,116.6913" style="stroke:#181818;stroke-width:1.0;"/><text fill="#000000" font-family="sans-serif" font-size="13" lengthAdjust="spacing" textLength="146" x="101.25" y="110.0163">&#1030;&#1085;&#1090;&#1077;&#1088;&#1092;&#1077;&#1081;&#1089; &#1082;&#1086;&#1088;&#1080;&#1089;&#1090;&#1091;&#1074;&#1072;&#1095;&#1072;</text></g><!--link browser to rest--><g id="link_browser_rest"><path d="M345.52,116.6913 C368.37,116.6913 397.37,116.6913 424.96,116.6913 " fill="none" id="browser-rest" style="stroke:#181818;stroke-width:1.0;"/><polygon fill="#181818" points="340.78,116.6913,349.78,120.6913,345.78,116.6913,349.78,112.6913,340.78,116.6913" style="stroke:#181818;stroke-width:1.0;"/><polygon fill="#181818" points="429.83,116.6913,420.83,112.6913,424.83,116.6913,420.83,120.6913,429.83,116.6913" style="stroke:#181818;stroke-width:1.0;"/><text fill="#000000" font-family="sans-serif" font-size="13" lengthAdjust="spacing" textLength="55" x="357.75" y="110.0163">REST API</text></g><!--link rest to core--><g id="link_rest_core"><path d="M608.11,116.6913 C615.7,116.6913 623.29,116.6913 630.87,116.6913 " fill="none" id="rest-core" style="stroke:#181818;stroke-width:1.0;"/><polygon fill="#181818" points="603.18,116.6913,612.18,120.6913,608.18,116.6913,612.18,112.6913,603.18,116.6913" style="stroke:#181818;stroke-width:1.0;"/><polygon fill="#181818" points="635.67,116.6913,626.67,112.6913,630.67,116.6913,626.67,120.6913,635.67,116.6913" style="stroke:#181818;stroke-width:1.0;"/></g><!--SRC=[ZL3DQi904BxlKmovYtSHeGT1Rw9vWJJ9JGXij3qKmSJI7ckWz92B-0P1AbNHzXM-UIDdLaIb5_UmC3FV7ryGZX9BAF7BKsmuuvndMA7YTmfI6gUnDIOCR4HOeAGNG_9ESo64Ii0_MFDKmOysULRyn1ZbKRFMEk-eGNZ3WNF5yYlMs796sFrtHIL-msGSaOSv_cIbBZaEs61BdAc08ENthjDuM5uk94E90f-UnXBx9qbm0byH5lo5Rn5qzf9eZuewlj-hzzi3tp5jd8xkOV67h2JchM-OsDYn9zh8kGWjHNMb4VMXXrxNk5aFZd84]--></g></svg>