<?xml version="1.0" encoding="us-ascii" standalone="no"?><svg xmlns="http://www.w3.org/2000/svg" xmlns:xlink="http://www.w3.org/1999/xlink" contentStyleType="text/css" height="534px" preserveAspectRatio="none" style="width:719px;height:534px;background:#FFFFFF;" version="1.1" viewBox="0 0 719 534" width="719px" zoomAndPan="magnify"><defs/><g><text fill="#000000" font-family="sans-serif" font-size="14" font-weight="bold" lengthAdjust="spacing" textLength="237" x="242.5" y="29.3499">&#1047;&#1072;&#1074;&#1072;&#1085;&#1090;&#1072;&#1078;&#1077;&#1085;&#1085;&#1103; &#1073;&#1072;&#1079;&#1080; &#1076;&#1072;&#1085;&#1080;&#1093; &#1079; &#1076;&#1080;&#1089;&#1082;&#1091;</text><rect fill="#FFFFFF" height="310.0001" style="stroke:#181818;stroke-width:1.0;" width="10" x="41.5" y="132.3998"/><rect fill="#FFFFFF" height="278.1001" style="stroke:#181818;stroke-width:1.0;" width="10" x="294.5" y="155.2999"/><rect fill="#FFFFFF" height="92.7" style="stroke:#181818;stroke-width:1.0;" width="10" x="404" y="217.0999"/><rect fill="#FFFFFF" height="216.3001" style="stroke:#181818;stroke-width:1.0;" width="10" x="538" y="186.1999"/><rect fill="#FFFFFF" height="30.9" style="stroke:#181818;stroke-width:1.0;" width="10" x="681" y="340.6999"/><line style="stroke:#181818;stroke-width:0.5;stroke-dasharray:5.0,5.0;" x1="46" x2="46" y1="122.3998" y2="451.4"/><line style="stroke:#181818;stroke-width:0.5;stroke-dasharray:5.0,5.0;" x1="299.5" x2="299.5" y1="122.3998" y2="451.4"/><line style="stroke:#181818;stroke-width:0.5;stroke-dasharray:5.0,5.0;" x1="408.5" x2="408.5" y1="122.3998" y2="451.4"/><line style="stroke:#181818;stroke-width:0.5;stroke-dasharray:5.0,5.0;" x1="542.5" x2="542.5" y1="122.3998" y2="451.4"/><line style="stroke:#181818;stroke-width:0.5;stroke-dasharray:5.0,5.0;" x1="686" x2="686" y1="122.3998" y2="451.4"/><text fill="#000000" font-family="sans-serif" font-size="14" lengthAdjust="spacing" textLength="77" x="5" y="118.5499">&#1050;&#1086;&#1088;&#1080;&#1089;&#1090;&#1091;&#1074;&#1072;&#1095;</text><ellipse cx="46.5" cy="52.6999" fill="#E2E2F0" rx="8" ry="8" style="stroke:#181818;stroke-width:0.5;"/><path d="M46.5,60.6999 L46.5,87.6999 M33.5,68.6999 L59.5,68.6999 M46.5,87.6999 L33.5,102.6999 M46.5,87.6999 L59.5,102.6999 " fill="none" style="stroke:#181818;stroke-width:0.5;"/><text fill="#000000" font-family="sans-serif" font-size="14" lengthAdjust="spacing" textLength="77" x="5" y="464.7499">&#1050;&#1086;&#1088;&#1080;&#1089;&#1090;&#1091;&#1074;&#1072;&#1095;</text><ellipse cx="46.5" cy="477.0999" fill="#E2E2F0" rx="8" ry="8" style="stroke:#181818;stroke-width:0.5;"/><path d="M46.5,485.0999 L46.5,512.0999 M33.5,493.0999 L59.5,493.0999 M46.5,512.0999 L33.5,527.0999 M46.5,512.0999 L59.5,527.0999 " fill="none" style="stroke:#181818;stroke-width:0.5;"/><text fill="#000000" font-family="sans-serif" font-size="14" lengthAdjust="spacing" textLength="110" x="241.5" y="118.5499">DatabaseScaffold</text><path d="M279,76.1999 L279,100.1999 M279,88.1999 L296,88.1999 " fill="none" style="stroke:#181818;stroke-width:0.5;"/><ellipse cx="308" cy="88.1999" fill="#E2E2F0" rx="12" ry="12" style="stroke:#181818;stroke-width:0.5;"/><text fill="#000000" font-family="sans-serif" font-size="14" lengthAdjust="spacing" textLength="110" x="241.5" y="464.7499">DatabaseScaffold</text><path d="M279,472.5999 L279,496.5999 M279,484.5999 L296,484.5999 " fill="none" style="stroke:#181818;stroke-width:0.5;"/><ellipse cx="308" cy="484.5999" fill="#E2E2F0" rx="12" ry="12" style="stroke:#181818;stroke-width:0.5;"/><text fill="#000000" font-family="sans-serif" font-size="14" lengthAdjust="spacing" textLength="77" x="367.5" y="118.5499">FileSelector</text><path d="M388.5,76.1999 L388.5,100.1999 M388.5,88.1999 L405.5,88.1999 " fill="none" style="stroke:#181818;stroke-width:0.5;"/><ellipse cx="417.5" cy="88.1999" fill="#E2E2F0" rx="12" ry="12" style="stroke:#181818;stroke-width:0.5;"/><text fill="#000000" font-family="sans-serif" font-size="14" lengthAdjust="spacing" textLength="77" x="367.5" y="464.7499">FileSelector</text><path d="M388.5,472.5999 L388.5,496.5999 M388.5,484.5999 L405.5,484.5999 " fill="none" style="stroke:#181818;stroke-width:0.5;"/><ellipse cx="417.5" cy="484.5999" fill="#E2E2F0" rx="12" ry="12" style="stroke:#181818;stroke-width:0.5;"/><text fill="#000000" font-family="sans-serif" font-size="14" lengthAdjust="spacing" textLength="159" x="460.5" y="118.5499">State&lt;DatabaseScaffold&gt;</text><ellipse cx="543" cy="88.1999" fill="#E2E2F0" rx="12" ry="12" style="stroke:#181818;stroke-width:0.5;"/><polygon fill="#181818" points="539,76.1999,545,71.1999,543,76.1999,545,81.1999,539,76.1999" style="stroke:#181818;stroke-width:1.0;"/><text fill="#000000" font-family="sans-serif" font-size="14" lengthAdjust="spacing" textLength="159" x="460.5" y="464.7499">State&lt;DatabaseScaffold&gt;</text><ellipse cx="543" cy="484.5999" fill="#E2E2F0" rx="12" ry="12" style="stroke:#181818;stroke-width:0.5;"/><polygon fill="#181818" points="539,472.5999,545,467.5999,543,472.5999,545,477.5999,539,472.5999" style="stroke:#181818;stroke-width:1.0;"/><text fill="#000000" font-family="sans-serif" font-size="14" lengthAdjust="spacing" textLength="58" x="654" y="118.5499">Database</text><ellipse cx="686" cy="88.1999" fill="#E2E2F0" rx="12" ry="12" style="stroke:#181818;stroke-width:0.5;"/><line style="stroke:#181818;stroke-width:0.5;" x1="674" x2="698" y1="102.1999" y2="102.1999"/><text fill="#000000" font-family="sans-serif" font-size="14" lengthAdjust="spacing" textLength="58" x="654" y="464.7499">Database</text><ellipse cx="686" cy="484.5999" fill="#E2E2F0" rx="12" ry="12" style="stroke:#181818;stroke-width:0.5;"/><line style="stroke:#181818;stroke-width:0.5;" x1="674" x2="698" y1="498.5999" y2="498.5999"/><rect fill="#FFFFFF" height="310.0001" style="stroke:#181818;stroke-width:1.0;" width="10" x="41.5" y="132.3998"/><rect fill="#FFFFFF" height="278.1001" style="stroke:#181818;stroke-width:1.0;" width="10" x="294.5" y="155.2999"/><rect fill="#FFFFFF" height="92.7" style="stroke:#181818;stroke-width:1.0;" width="10" x="404" y="217.0999"/><rect fill="#FFFFFF" height="216.3001" style="stroke:#181818;stroke-width:1.0;" width="10" x="538" y="186.1999"/><rect fill="#FFFFFF" height="30.9" style="stroke:#181818;stroke-width:1.0;" width="10" x="681" y="340.6999"/><polygon fill="#181818" points="282.5,151.2999,292.5,155.2999,282.5,159.2999,286.5,155.2999" style="stroke:#181818;stroke-width:1.0;"/><line style="stroke:#181818;stroke-width:1.0;" x1="51.5" x2="288.5" y1="155.2999" y2="155.2999"/><text fill="#000000" font-family="sans-serif" font-size="13" lengthAdjust="spacing" textLength="224" x="58.5" y="149.7249">&#1053;&#1072;&#1090;&#1080;&#1089;&#1082;&#1072;&#1085;&#1085;&#1103; &#1082;&#1085;&#1086;&#1087;&#1082;&#1080; "Open Database"</text><polygon fill="#181818" points="526,182.1999,536,186.1999,526,190.1999,530,186.1999" style="stroke:#181818;stroke-width:1.0;"/><line style="stroke:#181818;stroke-width:1.0;" x1="304.5" x2="532" y1="186.1999" y2="186.1999"/><text fill="#000000" font-family="sans-serif" font-size="13" lengthAdjust="spacing" textLength="69" x="311.5" y="180.6249">onPressed()</text><polygon fill="#181818" points="425,213.0999,415,217.0999,425,221.0999,421,217.0999" style="stroke:#181818;stroke-width:1.0;"/><line style="stroke:#181818;stroke-width:1.0;" x1="419" x2="537" y1="217.0999" y2="217.0999"/><text fill="#000000" font-family="sans-serif" font-size="13" lengthAdjust="spacing" textLength="93" x="431" y="211.5249">await openFile()</text><polygon fill="#181818" points="62.5,243.9999,52.5,247.9999,62.5,251.9999,58.5,247.9999" style="stroke:#181818;stroke-width:1.0;"/><line style="stroke:#181818;stroke-width:1.0;" x1="56.5" x2="403" y1="247.9999" y2="247.9999"/><text fill="#000000" font-family="sans-serif" font-size="13" lengthAdjust="spacing" textLength="169" x="68.5" y="242.4249">&#1055;&#1086;&#1082;&#1072;&#1079; &#1092;&#1086;&#1088;&#1084;&#1080; &#1074;&#1080;&#1073;&#1086;&#1088;&#1091; &#1092;&#1072;&#1081;&#1083;&#1091;</text><polygon fill="#181818" points="392,274.8999,402,278.8999,392,282.8999,396,278.8999" style="stroke:#181818;stroke-width:1.0;"/><line style="stroke:#181818;stroke-width:1.0;" x1="51.5" x2="398" y1="278.8999" y2="278.8999"/><text fill="#000000" font-family="sans-serif" font-size="13" lengthAdjust="spacing" textLength="75" x="58.5" y="273.3249">&#1042;&#1080;&#1073;&#1110;&#1088; &#1092;&#1072;&#1081;&#1083;&#1091;</text><polygon fill="#181818" points="526,305.7999,536,309.7999,526,313.7999,530,309.7999" style="stroke:#181818;stroke-width:1.0;"/><line style="stroke:#181818;stroke-width:1.0;" x1="409" x2="532" y1="309.7999" y2="309.7999"/><text fill="#000000" font-family="sans-serif" font-size="13" lengthAdjust="spacing" textLength="66" x="416" y="304.2249">return path</text><polygon fill="#181818" points="669,336.6999,679,340.6999,669,344.6999,673,340.6999" style="stroke:#181818;stroke-width:1.0;"/><line style="stroke:#181818;stroke-width:1.0;" x1="548" x2="675" y1="340.6999" y2="340.6999"/><text fill="#000000" font-family="sans-serif" font-size="13" lengthAdjust="spacing" textLength="114" x="555" y="335.1249">Database.fromJson</text><polygon fill="#181818" points="559,367.6,549,371.6,559,375.6,555,371.6" style="stroke:#181818;stroke-width:1.0;"/><line style="stroke:#181818;stroke-width:1.0;" x1="553" x2="685" y1="371.6" y2="371.6"/><text fill="#000000" font-family="sans-serif" font-size="13" lengthAdjust="spacing" textLength="94" x="565" y="366.025">return database</text><polygon fill="#181818" points="315.5,398.5,305.5,402.5,315.5,406.5,311.5,402.5" style="stroke:#181818;stroke-width:1.0;"/><line style="stroke:#181818;stroke-width:1.0;" x1="309.5" x2="542" y1="402.5" y2="402.5"/><text fill="#000000" font-family="sans-serif" font-size="13" lengthAdjust="spacing" textLength="58" x="321.5" y="396.925">setState()</text><polygon fill="#181818" points="62.5,429.4,52.5,433.4,62.5,437.4,58.5,433.4" style="stroke:#181818;stroke-width:1.0;"/><line style="stroke:#181818;stroke-width:1.0;" x1="56.5" x2="298.5" y1="433.4" y2="433.4"/><text fill="#000000" font-family="sans-serif" font-size="13" lengthAdjust="spacing" textLength="197" x="68.5" y="427.825">&#1055;&#1086;&#1082;&#1072;&#1079; &#1079;&#1072;&#1074;&#1072;&#1085;&#1090;&#1072;&#1078;&#1077;&#1085;&#1086;&#1111; &#1073;&#1072;&#1079;&#1080; &#1076;&#1072;&#1085;&#1080;&#1093;</text><!--SRC=[RLDBJiCm4Dtd5AEiO047GAWhn88DI3s1sxWYKh0hsmMnAos89H8BAY4Xhb0geA50kSBuHemTvTCwYoHsPjvxysPiavgC0yvmZWjwVks4tf_uWR-qVW1ye-qISy1t5yNStW4ktIwtDxYoqoXYVICLu3EkxTZzjHCxTLps7fY6aUOgwicHI9YwXYDcM8zftkspmK1cIHqvJZFUvHbtP55V2gDa1d7NCCCFjr6Ts35h5ukuCAcfYNqvwIL52cNtWhrE80m7W2zKuwJmuRrvlojQhF6FlZd4fqCkAcXSKmSs0dgIzFMHZXHdYclDavtTcg4elaYXtAPxWh0hbXgGfEu2JTn6cpPGnEBDah5NSk0iBS7U-gdyk04kCATfqjPEtVyvVk4tpQ_iq5O9-EZIxPCTDvEt5KkFYfkH4Z1avZnAU7krbTcoMOGhb_i39IzEj1HXZwlUjkWbPKv3iy85UetPQsxyqQBMDg35KDfc6NQMBaLuOzPsrdPZsighZiu_]--></g></svg>