<?xml version="1.0" encoding="us-ascii" standalone="no"?><svg xmlns="http://www.w3.org/2000/svg" xmlns:xlink="http://www.w3.org/1999/xlink" contentStyleType="text/css" height="534px" preserveAspectRatio="none" style="width:633px;height:534px;background:#FFFFFF;" version="1.1" viewBox="0 0 633 534" width="633px" zoomAndPan="magnify"><defs/><g><text fill="#000000" font-family="sans-serif" font-size="14" font-weight="bold" lengthAdjust="spacing" textLength="116" x="260" y="29.3499">&#1056;&#1110;&#1079;&#1085;&#1080;&#1094;&#1103; &#1090;&#1072;&#1073;&#1083;&#1080;&#1094;&#1100;</text><rect fill="#FFFFFF" height="310.0001" style="stroke:#181818;stroke-width:1.0;" width="10" x="41.5" y="132.3998"/><rect fill="#FFFFFF" height="92.7" style="stroke:#181818;stroke-width:1.0;" width="10" x="254.5" y="217.0999"/><rect fill="#FFFFFF" height="278.1001" style="stroke:#181818;stroke-width:1.0;" width="10" x="369" y="155.2999"/><rect fill="#FFFFFF" height="216.3001" style="stroke:#181818;stroke-width:1.0;" width="10" x="496.5" y="186.1999"/><rect fill="#FFFFFF" height="30.9" style="stroke:#181818;stroke-width:1.0;" width="10" x="606.5" y="340.6999"/><line style="stroke:#181818;stroke-width:0.5;stroke-dasharray:5.0,5.0;" x1="46" x2="46" y1="122.3998" y2="451.4"/><line style="stroke:#181818;stroke-width:0.5;stroke-dasharray:5.0,5.0;" x1="259.5" x2="259.5" y1="122.3998" y2="451.4"/><line style="stroke:#181818;stroke-width:0.5;stroke-dasharray:5.0,5.0;" x1="373.5" x2="373.5" y1="122.3998" y2="451.4"/><line style="stroke:#181818;stroke-width:0.5;stroke-dasharray:5.0,5.0;" x1="501.5" x2="501.5" y1="122.3998" y2="451.4"/><line style="stroke:#181818;stroke-width:0.5;stroke-dasharray:5.0,5.0;" x1="611" x2="611" y1="122.3998" y2="451.4"/><text fill="#000000" font-family="sans-serif" font-size="14" lengthAdjust="spacing" textLength="77" x="5" y="118.5499">&#1050;&#1086;&#1088;&#1080;&#1089;&#1090;&#1091;&#1074;&#1072;&#1095;</text><ellipse cx="46.5" cy="52.6999" fill="#E2E2F0" rx="8" ry="8" style="stroke:#181818;stroke-width:0.5;"/><path d="M46.5,60.6999 L46.5,87.6999 M33.5,68.6999 L59.5,68.6999 M46.5,87.6999 L33.5,102.6999 M46.5,87.6999 L59.5,102.6999 " fill="none" style="stroke:#181818;stroke-width:0.5;"/><text fill="#000000" font-family="sans-serif" font-size="14" lengthAdjust="spacing" textLength="77" x="5" y="464.7499">&#1050;&#1086;&#1088;&#1080;&#1089;&#1090;&#1091;&#1074;&#1072;&#1095;</text><ellipse cx="46.5" cy="477.0999" fill="#E2E2F0" rx="8" ry="8" style="stroke:#181818;stroke-width:0.5;"/><path d="M46.5,485.0999 L46.5,512.0999 M33.5,493.0999 L59.5,493.0999 M46.5,512.0999 L33.5,527.0999 M46.5,512.0999 L59.5,527.0999 " fill="none" style="stroke:#181818;stroke-width:0.5;"/><text fill="#000000" font-family="sans-serif" font-size="14" lengthAdjust="spacing" textLength="110" x="201.5" y="118.5499">DatabaseScaffold</text><path d="M239,76.1999 L239,100.1999 M239,88.1999 L256,88.1999 " fill="none" style="stroke:#181818;stroke-width:0.5;"/><ellipse cx="268" cy="88.1999" fill="#E2E2F0" rx="12" ry="12" style="stroke:#181818;stroke-width:0.5;"/><text fill="#000000" font-family="sans-serif" font-size="14" lengthAdjust="spacing" textLength="110" x="201.5" y="464.7499">DatabaseScaffold</text><path d="M239,472.5999 L239,496.5999 M239,484.5999 L256,484.5999 " fill="none" style="stroke:#181818;stroke-width:0.5;"/><ellipse cx="268" cy="484.5999" fill="#E2E2F0" rx="12" ry="12" style="stroke:#181818;stroke-width:0.5;"/><text fill="#000000" font-family="sans-serif" font-size="14" lengthAdjust="spacing" textLength="87" x="327.5" y="118.5499">TableScaffold</text><path d="M353.5,76.1999 L353.5,100.1999 M353.5,88.1999 L370.5,88.1999 " fill="none" style="stroke:#181818;stroke-width:0.5;"/><ellipse cx="382.5" cy="88.1999" fill="#E2E2F0" rx="12" ry="12" style="stroke:#181818;stroke-width:0.5;"/><text fill="#000000" font-family="sans-serif" font-size="14" lengthAdjust="spacing" textLength="87" x="327.5" y="464.7499">TableScaffold</text><path d="M353.5,472.5999 L353.5,496.5999 M353.5,484.5999 L370.5,484.5999 " fill="none" style="stroke:#181818;stroke-width:0.5;"/><ellipse cx="382.5" cy="484.5999" fill="#E2E2F0" rx="12" ry="12" style="stroke:#181818;stroke-width:0.5;"/><text fill="#000000" font-family="sans-serif" font-size="14" lengthAdjust="spacing" textLength="136" x="430.5" y="118.5499">State&lt;TableScaffold&gt;</text><ellipse cx="501.5" cy="88.1999" fill="#E2E2F0" rx="12" ry="12" style="stroke:#181818;stroke-width:0.5;"/><polygon fill="#181818" points="497.5,76.1999,503.5,71.1999,501.5,76.1999,503.5,81.1999,497.5,76.1999" style="stroke:#181818;stroke-width:1.0;"/><text fill="#000000" font-family="sans-serif" font-size="14" lengthAdjust="spacing" textLength="136" x="430.5" y="464.7499">State&lt;TableScaffold&gt;</text><ellipse cx="501.5" cy="484.5999" fill="#E2E2F0" rx="12" ry="12" style="stroke:#181818;stroke-width:0.5;"/><polygon fill="#181818" points="497.5,472.5999,503.5,467.5999,501.5,472.5999,503.5,477.5999,497.5,472.5999" style="stroke:#181818;stroke-width:1.0;"/><text fill="#000000" font-family="sans-serif" font-size="14" lengthAdjust="spacing" textLength="35" x="591" y="118.5499">Table</text><ellipse cx="611.5" cy="88.1999" fill="#E2E2F0" rx="12" ry="12" style="stroke:#181818;stroke-width:0.5;"/><line style="stroke:#181818;stroke-width:0.5;" x1="599.5" x2="623.5" y1="102.1999" y2="102.1999"/><text fill="#000000" font-family="sans-serif" font-size="14" lengthAdjust="spacing" textLength="35" x="591" y="464.7499">Table</text><ellipse cx="611.5" cy="484.5999" fill="#E2E2F0" rx="12" ry="12" style="stroke:#181818;stroke-width:0.5;"/><line style="stroke:#181818;stroke-width:0.5;" x1="599.5" x2="623.5" y1="498.5999" y2="498.5999"/><rect fill="#FFFFFF" height="310.0001" style="stroke:#181818;stroke-width:1.0;" width="10" x="41.5" y="132.3998"/><rect fill="#FFFFFF" height="92.7" style="stroke:#181818;stroke-width:1.0;" width="10" x="254.5" y="217.0999"/><rect fill="#FFFFFF" height="278.1001" style="stroke:#181818;stroke-width:1.0;" width="10" x="369" y="155.2999"/><rect fill="#FFFFFF" height="216.3001" style="stroke:#181818;stroke-width:1.0;" width="10" x="496.5" y="186.1999"/><rect fill="#FFFFFF" height="30.9" style="stroke:#181818;stroke-width:1.0;" width="10" x="606.5" y="340.6999"/><polygon fill="#181818" points="357,151.2999,367,155.2999,357,159.2999,361,155.2999" style="stroke:#181818;stroke-width:1.0;"/><line style="stroke:#181818;stroke-width:1.0;" x1="51.5" x2="363" y1="155.2999" y2="155.2999"/><text fill="#000000" font-family="sans-serif" font-size="13" lengthAdjust="spacing" textLength="230" x="58.5" y="149.7249">&#1053;&#1072;&#1090;&#1080;&#1089;&#1082;&#1072;&#1085;&#1085;&#1103; &#1082;&#1085;&#1086;&#1087;&#1082;&#1080; "Table Difference"</text><polygon fill="#181818" points="484.5,182.1999,494.5,186.1999,484.5,190.1999,488.5,186.1999" style="stroke:#181818;stroke-width:1.0;"/><line style="stroke:#181818;stroke-width:1.0;" x1="379" x2="490.5" y1="186.1999" y2="186.1999"/><text fill="#000000" font-family="sans-serif" font-size="13" lengthAdjust="spacing" textLength="69" x="386" y="180.6249">onPressed()</text><polygon fill="#181818" points="275.5,213.0999,265.5,217.0999,275.5,221.0999,271.5,217.0999" style="stroke:#181818;stroke-width:1.0;"/><line style="stroke:#181818;stroke-width:1.0;" x1="269.5" x2="495.5" y1="217.0999" y2="217.0999"/><text fill="#000000" font-family="sans-serif" font-size="13" lengthAdjust="spacing" textLength="77" x="281.5" y="211.5249">selectTable()</text><polygon fill="#181818" points="62.5,243.9999,52.5,247.9999,62.5,251.9999,58.5,247.9999" style="stroke:#181818;stroke-width:1.0;"/><line style="stroke:#181818;stroke-width:1.0;" x1="56.5" x2="253.5" y1="247.9999" y2="247.9999"/><text fill="#000000" font-family="sans-serif" font-size="13" lengthAdjust="spacing" textLength="179" x="68.5" y="242.4249">&#1055;&#1086;&#1082;&#1072;&#1079; &#1076;&#1110;&#1072;&#1083;&#1086;&#1075;&#1091; &#1074;&#1080;&#1073;&#1086;&#1088;&#1091; &#1090;&#1072;&#1073;&#1083;&#1080;&#1094;&#1110;</text><polygon fill="#181818" points="242.5,274.8999,252.5,278.8999,242.5,282.8999,246.5,278.8999" style="stroke:#181818;stroke-width:1.0;"/><line style="stroke:#181818;stroke-width:1.0;" x1="51.5" x2="248.5" y1="278.8999" y2="278.8999"/><text fill="#000000" font-family="sans-serif" font-size="13" lengthAdjust="spacing" textLength="83" x="58.5" y="273.3249">&#1042;&#1080;&#1073;&#1110;&#1088; &#1090;&#1072;&#1073;&#1083;&#1080;&#1094;&#1110;</text><polygon fill="#181818" points="484.5,305.7999,494.5,309.7999,484.5,313.7999,488.5,309.7999" style="stroke:#181818;stroke-width:1.0;"/><line style="stroke:#181818;stroke-width:1.0;" x1="259.5" x2="490.5" y1="309.7999" y2="309.7999"/><text fill="#000000" font-family="sans-serif" font-size="13" lengthAdjust="spacing" textLength="66" x="266.5" y="304.2249">return path</text><polygon fill="#181818" points="594.5,336.6999,604.5,340.6999,594.5,344.6999,598.5,340.6999" style="stroke:#181818;stroke-width:1.0;"/><line style="stroke:#181818;stroke-width:1.0;" x1="506.5" x2="600.5" y1="340.6999" y2="340.6999"/><text fill="#000000" font-family="sans-serif" font-size="13" lengthAdjust="spacing" textLength="81" x="513.5" y="335.1249">removeFrom()</text><polygon fill="#181818" points="517.5,367.6,507.5,371.6,517.5,375.6,513.5,371.6" style="stroke:#181818;stroke-width:1.0;"/><line style="stroke:#181818;stroke-width:1.0;" x1="511.5" x2="610.5" y1="371.6" y2="371.6"/><text fill="#000000" font-family="sans-serif" font-size="13" lengthAdjust="spacing" textLength="36" x="523.5" y="366.025">return</text><polygon fill="#181818" points="390,398.5,380,402.5,390,406.5,386,402.5" style="stroke:#181818;stroke-width:1.0;"/><line style="stroke:#181818;stroke-width:1.0;" x1="384" x2="500.5" y1="402.5" y2="402.5"/><text fill="#000000" font-family="sans-serif" font-size="13" lengthAdjust="spacing" textLength="58" x="396" y="396.925">setState()</text><polygon fill="#181818" points="62.5,429.4,52.5,433.4,62.5,437.4,58.5,433.4" style="stroke:#181818;stroke-width:1.0;"/><line style="stroke:#181818;stroke-width:1.0;" x1="56.5" x2="373" y1="433.4" y2="433.4"/><text fill="#000000" font-family="sans-serif" font-size="13" lengthAdjust="spacing" textLength="138" x="68.5" y="427.825">&#1055;&#1086;&#1082;&#1072;&#1079; &#1088;&#1110;&#1079;&#1085;&#1080;&#1094;&#1110; &#1090;&#1072;&#1073;&#1083;&#1080;&#1094;&#1100;</text><!--SRC=[TLFDIiD04BxdAOQSzE0BYFHKF0lr1RR910DfLZRRWhVQWbu4mKCEWkWZr1zeKL9VOVQDdEngaqtg9SdkplVDDz-NrQdE4EZ5bBIcYZRcnjo3MT2ANkdBBk-2G4HQAg17sfevxrsRXLdI6wtCBOW2fWMgO2odUIpK5Go55cDHu2WIIIApk3av5-EisOvahfNC81nfeV74Eno4DMzH7mIOwrJ_WgsITCRRhcdzWAE1pmp7G4-iRL4hfK-UfAAAX-BFYhRqpUyDX1O2mpH9K64UOTXG-pfzRcvcPN4JcPyfB0gC3muRhDFiIhYsQmR32immqfQr3UpPreCodPsNntlcEUh1ra0V7DoAazhIkra2XxBXu3WcNdWfbZkpzcYYXnfcIZFlWlQf-3D0ePwg72w5lWXY_7-IdHlEyneuaJCyLNBITi0bx6fwNTeDNA7FwXcixI_5t2sG2wONPjzHjgwv2cNtAdHbx8Ry0G00]--></g></svg>