<?xml version="1.0" encoding="us-ascii" standalone="no"?><svg xmlns="http://www.w3.org/2000/svg" xmlns:xlink="http://www.w3.org/1999/xlink" contentStyleType="text/css" height="369px" preserveAspectRatio="none" style="width:843px;height:369px;background:#FFFFFF;" version="1.1" viewBox="0 0 843 369" width="843px" zoomAndPan="magnify"><defs/><g><rect fill="#F1F1F1" height="40" rx="12.5" ry="12.5" style="stroke:#181818;stroke-width:0.5;" width="103" x="407.02" y="87"/><text fill="#000000" font-family="sans-serif" font-size="14" lengthAdjust="spacing" textLength="93" x="412.02" y="112.25">&#1055;&#1086;&#1082;&#1072;&#1079; &#1090;&#1072;&#1073;&#1083;&#1080;&#1094;&#1110;</text><rect fill="#F1F1F1" height="40" rx="12.5" ry="12.5" style="stroke:#181818;stroke-width:0.5;" width="263" x="191.02" y="205"/><text fill="#000000" font-family="sans-serif" font-size="14" lengthAdjust="spacing" textLength="253" x="196.02" y="230.25">&#1055;&#1086;&#1082;&#1072;&#1079; &#1084;&#1077;&#1085;&#1102; &#1086;&#1087;&#1077;&#1088;&#1072;&#1094;&#1110;&#1081; &#1085;&#1072;&#1076; &#1073;&#1072;&#1079;&#1086;&#1102; &#1076;&#1072;&#1085;&#1080;&#1093;</text><rect fill="#F1F1F1" height="40" rx="12.5" ry="12.5" style="stroke:#181818;stroke-width:0.5;" width="192" x="95.52" y="323"/><text fill="#000000" font-family="sans-serif" font-size="14" lengthAdjust="spacing" textLength="182" x="100.52" y="348.25">&#1055;&#1086;&#1082;&#1072;&#1079; &#1092;&#1086;&#1088;&#1084;&#1080; &#1074;&#1080;&#1073;&#1086;&#1088;&#1091; &#1092;&#1072;&#1081;&#1083;&#1091;</text><rect fill="#F1F1F1" height="40" rx="12.5" ry="12.5" style="stroke:#181818;stroke-width:0.5;" width="204" x="547.52" y="205"/><text fill="#000000" font-family="sans-serif" font-size="14" lengthAdjust="spacing" textLength="194" x="552.52" y="230.25">&#1055;&#1086;&#1082;&#1072;&#1079; &#1076;&#1110;&#1072;&#1083;&#1086;&#1075;&#1091; &#1074;&#1080;&#1073;&#1086;&#1088;&#1091; &#1090;&#1072;&#1073;&#1083;&#1080;&#1094;&#1110;</text><ellipse cx="458.52" cy="16" fill="#181818" rx="10" ry="10" style="stroke:none;stroke-width:1.0;"/><ellipse cx="649.52" cy="343" fill="none" rx="10" ry="10" style="stroke:#181818;stroke-width:1.0;"/><ellipse cx="650.02" cy="343.5" fill="#181818" rx="6" ry="6" style="stroke:none;stroke-width:1.0;"/><!--link *start* to table--><g id="link_*start*_table"><path d="M458.52,26.19 C458.52,38.96 458.52,62.55 458.52,80.79 " fill="none" id="*start*-to-table" style="stroke:#181818;stroke-width:1.0;"/><polygon fill="#181818" points="458.52,85.74,462.52,76.74,458.52,80.74,454.52,76.74,458.52,85.74" style="stroke:#181818;stroke-width:1.0;"/></g><!--link table to db--><g id="link_table_db"><path d="M406.53,107.59 C320.9,108.16 156.01,114.85 119.52,157 C90.75,190.23 132.05,207.05 184.74,215.54 " fill="none" id="table-to-db" style="stroke:#181818;stroke-width:1.0;"/><polygon fill="#181818" points="189.54,216.43,181.2645,211.09,184.5998,215.659,180.0308,218.9943,189.54,216.43" style="stroke:#181818;stroke-width:1.0;"/><text fill="#000000" font-family="sans-serif" font-size="13" lengthAdjust="spacing" textLength="158" x="120.52" y="171.325">&#1053;&#1072;&#1090;&#1080;&#1089;&#1082;&#1072;&#1085;&#1085;&#1103; &#1082;&#1085;&#1086;&#1087;&#1082;&#1080; &#1084;&#1077;&#1085;&#1102;</text></g><!--link db to table--><g id="link_db_table"><path d="M315.74,204.61 C311.99,190.17 309.83,170.69 319.52,157 C337.95,130.96 371.4,118.66 400.87,112.9 " fill="none" id="db-to-table" style="stroke:#181818;stroke-width:1.0;"/><polygon fill="#181818" points="405.7,111.83,396.1267,109.5167,400.7818,112.7307,397.5678,117.3859,405.7,111.83" style="stroke:#181818;stroke-width:1.0;"/><text fill="#000000" font-family="sans-serif" font-size="13" lengthAdjust="spacing" textLength="94" x="320.52" y="171.325">&#1047;&#1072;&#1082;&#1088;&#1080;&#1090;&#1090;&#1103; &#1084;&#1077;&#1085;&#1102;</text></g><!--link db to file--><g id="link_db_file"><path d="M190.87,231.81 C123.63,237.83 51.6,250.08 30.52,275 C6,303.98 44.12,320.64 89.4,330.1 " fill="none" id="db-to-file" style="stroke:#181818;stroke-width:1.0;"/><polygon fill="#181818" points="94.25,331.28,86.2156,325.5836,89.3482,330.2939,84.6379,333.4265,94.25,331.28" style="stroke:#181818;stroke-width:1.0;"/><text fill="#000000" font-family="sans-serif" font-size="13" lengthAdjust="spacing" textLength="274" x="31.52" y="289.325">&#1047;&#1072;&#1074;&#1072;&#1085;&#1090;&#1072;&#1078;&#1077;&#1085;&#1085;&#1103; &#1095;&#1080; &#1074;&#1080;&#1074;&#1072;&#1085;&#1090;&#1072;&#1078;&#1077;&#1085;&#1085;&#1103; &#1073;&#1072;&#1079;&#1080; &#1076;&#1072;&#1085;&#1080;&#1093;</text></g><!--link file to db--><g id="link_file_db"><path d="M270.39,322.57 C285.62,315.52 300.07,305.96 310.52,293 C319.93,281.33 322.96,264.77 323.62,251.03 " fill="none" id="file-to-db" style="stroke:#181818;stroke-width:1.0;"/><polygon fill="#181818" points="323.77,246.34,319.5146,255.2221,323.6272,251.338,327.5113,255.4506,323.77,246.34" style="stroke:#181818;stroke-width:1.0;"/><text fill="#000000" font-family="sans-serif" font-size="13" lengthAdjust="spacing" textLength="75" x="321.52" y="289.325">&#1042;&#1080;&#1073;&#1110;&#1088; &#1092;&#1072;&#1081;&#1083;&#1091;</text></g><!--link table to dialog--><g id="link_table_dialog"><path d="M451.46,127.35 C447.48,141.95 445.14,161.68 455.52,175 C467.04,189.79 503.33,200.82 541.46,208.63 " fill="none" id="table-to-dialog" style="stroke:#181818;stroke-width:1.0;"/><polygon fill="#181818" points="546.1,209.76,538.0656,204.0636,541.1982,208.7739,536.4879,211.9065,546.1,209.76" style="stroke:#181818;stroke-width:1.0;"/><text fill="#000000" font-family="sans-serif" font-size="13" lengthAdjust="spacing" textLength="222" x="456.52" y="171.325">&#1053;&#1072;&#1090;&#1080;&#1089;&#1082;&#1072;&#1085;&#1085;&#1103; &#1082;&#1085;&#1086;&#1087;&#1082;&#1080; &#1088;&#1110;&#1079;&#1085;&#1080;&#1094;&#1110; &#1090;&#1072;&#1073;&#1083;&#1080;&#1094;&#1100;</text></g><!--link dialog to table--><g id="link_dialog_table"><path d="M670.65,204.55 C683.41,190.46 695.14,171.42 683.52,157 C662.87,131.37 575.67,118.43 516.09,112.47 " fill="none" id="dialog-to-table" style="stroke:#181818;stroke-width:1.0;"/><polygon fill="#181818" points="511.42,111.92,519.9884,116.7762,516.3963,112.4062,520.7663,108.8141,511.42,111.92" style="stroke:#181818;stroke-width:1.0;"/><text fill="#000000" font-family="sans-serif" font-size="13" lengthAdjust="spacing" textLength="83" x="689.52" y="171.325">&#1042;&#1080;&#1073;&#1110;&#1088; &#1090;&#1072;&#1073;&#1083;&#1080;&#1094;&#1110;</text></g><!--link table to *end*--><g id="link_table_*end*"><path d="M510.38,108.02 C592.62,109.28 747.18,117.06 781.52,157 C836.65,221.13 706.94,307.55 663.25,333.99 " fill="none" id="table-to-*end*" style="stroke:#181818;stroke-width:1.0;"/><polygon fill="#181818" points="659.14,337.05,668.9154,335.8495,663.4275,334.4775,664.7995,328.9896,659.14,337.05" style="stroke:#181818;stroke-width:1.0;"/></g><!--link db to *end*--><g id="link_db_*end*"><path d="M377.25,245.42 C454.16,272.7 589.83,320.83 634.67,336.73 " fill="none" id="db-to-*end*" style="stroke:#181818;stroke-width:1.0;"/><polygon fill="#181818" points="639.15,338.68,632.0105,331.8956,634.439,337.0047,629.33,339.4332,639.15,338.68" style="stroke:#181818;stroke-width:1.0;"/></g><!--link dialog to *end*--><g id="link_dialog_*end*"><path d="M649.52,245.42 C649.52,268.33 649.52,305.94 649.52,326.83 " fill="none" id="dialog-to-*end*" style="stroke:#181818;stroke-width:1.0;"/><polygon fill="#181818" points="649.52,331.74,653.52,322.74,649.52,326.74,645.52,322.74,649.52,331.74" style="stroke:#181818;stroke-width:1.0;"/></g><!--SRC=[ZL3BJeD05DtFLznqQT8VSE6F61SWg2JLDiB67L8V6sCJ5xWo_W9MgfGw-0lt_f5d1WYGiZ0iPkPo7lUSYy3poRzSH3Va-U7fTR28WlcLKc7aH3vD-9qhBZdZRv84nmVlk907IIVaX1GvximVWV8FRrZBCs7oonk9EJCStX9h07A23d1S6KYEguRelPNqt37hEq1Zg1R4Qox0nbEMPfxnbdUojDopO7oR7DOP5g_u4wIXmdueBt1cytEbZWzEQ3ezgaEIgWypy5mw97v3fWIqM-kY4NT5k6eRkJIRDYKeu3iTC5-1Bn6da0JVQWzeOhIujT6sItuPa7MHnxQ7iRzDjKMlM6KLkzLVJ06IIjmhi9_F5l2lZEWmXPckwnks-QGQeK7udlUW-fu_Yc-hiDTEnJp_0000]--></g></svg>