<?xml version="1.0" encoding="us-ascii" standalone="no"?><svg xmlns="http://www.w3.org/2000/svg" xmlns:xlink="http://www.w3.org/1999/xlink" contentStyleType="text/css" height="145px" preserveAspectRatio="none" style="width:990px;height:145px;background:#FFFFFF;" version="1.1" viewBox="0 0 990 145" width="990px" zoomAndPan="magnify"><defs/><g><!--class TableScaffold--><g id="elem_TableScaffold"><rect codeLine="2" fill="#F1F1F1" height="84.3998" id="TableScaffold" rx="2.5" ry="2.5" style="stroke:#181818;stroke-width:0.5;" width="272" x="7" y="53.74"/><ellipse cx="66.75" cy="69.74" fill="#ADD1B2" rx="11" ry="11" style="stroke:#181818;stroke-width:1.0;"/><path d="M66.625,75.9431 Q64.2344,75.9431 63.0938,74.3337 Q61.9531,72.7244 61.9531,69.8025 Q61.9531,66.8806 63.0938,65.2869 Q64.2344,63.6775 66.625,63.6775 Q67.5469,63.6775 68.25,63.9275 Q68.9531,64.1619 69.4531,64.615 Q69.9688,65.0525 70.2969,65.6775 Q70.6406,66.3025 70.8281,67.0837 L68.4375,67.6619 Q68.3438,67.24 68.2031,66.8806 Q68.0625,66.5212 67.8438,66.2712 Q67.6406,66.0212 67.3281,65.8806 Q67.0156,65.7244 66.5781,65.7244 Q65.5313,65.7244 65.0938,66.5369 Q64.6719,67.3494 64.6719,68.7712 L64.6719,70.8494 Q64.6719,72.2712 65.0938,73.0837 Q65.5313,73.8806 66.5781,73.8806 Q67.4531,73.8806 67.8438,73.3494 Q68.25,72.8025 68.4375,71.9431 L70.8281,72.5212 Q70.6406,73.3025 70.2969,73.9431 Q69.9688,74.5681 69.4531,75.0212 Q68.9531,75.4744 68.25,75.7087 Q67.5469,75.9431 66.625,75.9431 Z " fill="#000000"/><text fill="#000000" font-family="sans-serif" font-size="14" lengthAdjust="spacing" textLength="87" x="87.25" y="74.99">TableScaffold</text><rect fill="#FFFFFF" height="17.6001" style="stroke:#181818;stroke-width:1.0;stroke-dasharray:2.0,2.0;" width="55" x="227" y="50.74"/><text fill="#000000" font-family="sans-serif" font-size="12" font-style="italic" lengthAdjust="spacing" textLength="53" x="228" y="64.0401">Boundary</text><line style="stroke:#181818;stroke-width:0.5;" x1="8" x2="278" y1="85.74" y2="85.74"/><rect fill="none" height="6" style="stroke:#C82930;stroke-width:1.0;" width="6" x="15" y="97.34"/><text fill="#000000" font-family="sans-serif" font-size="14" lengthAdjust="spacing" textLength="70" x="27" y="104.0899">Table table</text><line style="stroke:#181818;stroke-width:0.5;" x1="8" x2="278" y1="111.9399" y2="111.9399"/><rect fill="#F24D5C" height="6" style="stroke:#C82930;stroke-width:1.0;" width="6" x="15" y="123.5399"/><text fill="#000000" font-family="sans-serif" font-size="14" lengthAdjust="spacing" textLength="246" x="27" y="130.2899">Future&lt;Table?&gt; Function() selectTable</text></g><!--class DatabaseScaffold_State--><g id="elem_DatabaseScaffold_State"><rect codeLine="7" fill="#F1F1F1" height="66.1999" id="DatabaseScaffold_State" rx="2.5" ry="2.5" style="stroke:#181818;stroke-width:0.5;" width="239" x="530.5" y="62.84"/><ellipse cx="545.5" cy="78.84" fill="#ADD1B2" rx="11" ry="11" style="stroke:#181818;stroke-width:1.0;"/><path d="M545.375,85.0431 Q542.9844,85.0431 541.8438,83.4337 Q540.7031,81.8244 540.7031,78.9025 Q540.7031,75.9806 541.8438,74.3869 Q542.9844,72.7775 545.375,72.7775 Q546.2969,72.7775 547,73.0275 Q547.7031,73.2619 548.2031,73.715 Q548.7188,74.1525 549.0469,74.7775 Q549.3906,75.4025 549.5781,76.1837 L547.1875,76.7619 Q547.0938,76.34 546.9531,75.9806 Q546.8125,75.6212 546.5938,75.3712 Q546.3906,75.1212 546.0781,74.9806 Q545.7656,74.8244 545.3281,74.8244 Q544.2813,74.8244 543.8438,75.6369 Q543.4219,76.4494 543.4219,77.8712 L543.4219,79.9494 Q543.4219,81.3712 543.8438,82.1837 Q544.2813,82.9806 545.3281,82.9806 Q546.2031,82.9806 546.5938,82.4494 Q547,81.9025 547.1875,81.0431 L549.5781,81.6212 Q549.3906,82.4025 549.0469,83.0431 Q548.7188,83.6681 548.2031,84.1212 Q547.7031,84.5744 547,84.8087 Q546.2969,85.0431 545.375,85.0431 Z " fill="#000000"/><text fill="#000000" font-family="sans-serif" font-size="14" lengthAdjust="spacing" textLength="151" x="559.5" y="84.09">DatabaseScaffold_State</text><rect fill="#FFFFFF" height="17.6001" style="stroke:#181818;stroke-width:1.0;stroke-dasharray:2.0,2.0;" width="54" x="718.5" y="59.84"/><text fill="#000000" font-family="sans-serif" font-size="12" font-style="italic" lengthAdjust="spacing" textLength="52" x="719.5" y="73.1401">Controller</text><line style="stroke:#181818;stroke-width:0.5;" x1="531.5" x2="768.5" y1="94.84" y2="94.84"/><rect fill="none" height="6" style="stroke:#C82930;stroke-width:1.0;" width="6" x="538.5" y="106.44"/><text fill="#000000" font-family="sans-serif" font-size="14" lengthAdjust="spacing" textLength="118" x="550.5" y="113.1899">Database database</text><line style="stroke:#181818;stroke-width:0.5;" x1="531.5" x2="768.5" y1="121.0399" y2="121.0399"/></g><!--class Database--><g id="elem_Database"><rect codeLine="11" fill="#F1F1F1" height="66.1999" id="Database" rx="2.5" ry="2.5" style="stroke:#181818;stroke-width:0.5;" width="175" x="804.5" y="62.84"/><ellipse cx="842" cy="78.84" fill="#ADD1B2" rx="11" ry="11" style="stroke:#181818;stroke-width:1.0;"/><path d="M841.875,85.0431 Q839.4844,85.0431 838.3438,83.4337 Q837.2031,81.8244 837.2031,78.9025 Q837.2031,75.9806 838.3438,74.3869 Q839.4844,72.7775 841.875,72.7775 Q842.7969,72.7775 843.5,73.0275 Q844.2031,73.2619 844.7031,73.715 Q845.2188,74.1525 845.5469,74.7775 Q845.8906,75.4025 846.0781,76.1837 L843.6875,76.7619 Q843.5938,76.34 843.4531,75.9806 Q843.3125,75.6212 843.0938,75.3712 Q842.8906,75.1212 842.5781,74.9806 Q842.2656,74.8244 841.8281,74.8244 Q840.7813,74.8244 840.3438,75.6369 Q839.9219,76.4494 839.9219,77.8712 L839.9219,79.9494 Q839.9219,81.3712 840.3438,82.1837 Q840.7813,82.9806 841.8281,82.9806 Q842.7031,82.9806 843.0938,82.4494 Q843.5,81.9025 843.6875,81.0431 L846.0781,81.6212 Q845.8906,82.4025 845.5469,83.0431 Q845.2188,83.6681 844.7031,84.1212 Q844.2031,84.5744 843.5,84.8087 Q842.7969,85.0431 841.875,85.0431 Z " fill="#000000"/><text fill="#000000" font-family="sans-serif" font-size="14" lengthAdjust="spacing" textLength="58" x="861" y="84.09">Database</text><rect fill="#FFFFFF" height="17.6001" style="stroke:#181818;stroke-width:1.0;stroke-dasharray:2.0,2.0;" width="33" x="949.5" y="59.84"/><text fill="#000000" font-family="sans-serif" font-size="12" font-style="italic" lengthAdjust="spacing" textLength="31" x="950.5" y="73.1401">Entity</text><line style="stroke:#181818;stroke-width:0.5;" x1="805.5" x2="978.5" y1="94.84" y2="94.84"/><line style="stroke:#181818;stroke-width:0.5;" x1="805.5" x2="978.5" y1="102.84" y2="102.84"/><ellipse cx="815.5" cy="117.44" fill="#84BE84" rx="3" ry="3" style="stroke:#038048;stroke-width:1.0;"/><text fill="#000000" font-family="sans-serif" font-size="14" lengthAdjust="spacing" textLength="149" x="824.5" y="121.1899">List&lt;Table&gt; get tables()</text></g><!--class Table--><g id="elem_Table"><rect codeLine="15" fill="#F1F1F1" height="66.1999" id="Table" rx="2.5" ry="2.5" style="stroke:#181818;stroke-width:0.5;" width="182" x="314" y="62.84"/><ellipse cx="365.75" cy="78.84" fill="#ADD1B2" rx="11" ry="11" style="stroke:#181818;stroke-width:1.0;"/><path d="M365.625,85.0431 Q363.2344,85.0431 362.0938,83.4337 Q360.9531,81.8244 360.9531,78.9025 Q360.9531,75.9806 362.0938,74.3869 Q363.2344,72.7775 365.625,72.7775 Q366.5469,72.7775 367.25,73.0275 Q367.9531,73.2619 368.4531,73.715 Q368.9688,74.1525 369.2969,74.7775 Q369.6406,75.4025 369.8281,76.1837 L367.4375,76.7619 Q367.3438,76.34 367.2031,75.9806 Q367.0625,75.6212 366.8438,75.3712 Q366.6406,75.1212 366.3281,74.9806 Q366.0156,74.8244 365.5781,74.8244 Q364.5313,74.8244 364.0938,75.6369 Q363.6719,76.4494 363.6719,77.8712 L363.6719,79.9494 Q363.6719,81.3712 364.0938,82.1837 Q364.5313,82.9806 365.5781,82.9806 Q366.4531,82.9806 366.8438,82.4494 Q367.25,81.9025 367.4375,81.0431 L369.8281,81.6212 Q369.6406,82.4025 369.2969,83.0431 Q368.9688,83.6681 368.4531,84.1212 Q367.9531,84.5744 367.25,84.8087 Q366.5469,85.0431 365.625,85.0431 Z " fill="#000000"/><text fill="#000000" font-family="sans-serif" font-size="14" lengthAdjust="spacing" textLength="35" x="386.25" y="84.09">Table</text><rect fill="#FFFFFF" height="17.6001" style="stroke:#181818;stroke-width:1.0;stroke-dasharray:2.0,2.0;" width="33" x="466" y="59.84"/><text fill="#000000" font-family="sans-serif" font-size="12" font-style="italic" lengthAdjust="spacing" textLength="31" x="467" y="73.1401">Entity</text><line style="stroke:#181818;stroke-width:0.5;" x1="315" x2="495" y1="94.84" y2="94.84"/><line style="stroke:#181818;stroke-width:0.5;" x1="315" x2="495" y1="102.84" y2="102.84"/><ellipse cx="325" cy="117.44" fill="#84BE84" rx="3" ry="3" style="stroke:#038048;stroke-width:1.0;"/><text fill="#000000" font-family="sans-serif" font-size="14" lengthAdjust="spacing" textLength="156" x="334" y="121.1899">void removeFrom(Table)</text></g><!--link TableScaffold to DatabaseScaffold_State--><g id="link_TableScaffold_DatabaseScaffold_State"><path codeLine="19" d="M224.98,53.4 C252.38,41.32 283.57,29.82 313.5,23.74 C393.21,7.56 417.12,6 496.5,23.74 C528.56,30.9 561.83,45.53 589.16,59.76 " fill="none" id="TableScaffold-to-DatabaseScaffold_State" style="stroke:#181818;stroke-width:1.0;"/><polygon fill="#181818" points="593.2,62.41,587.1059,54.6729,588.7776,60.0771,583.3734,61.7488,593.2,62.41" style="stroke:#181818;stroke-width:1.0;"/></g><!--link DatabaseScaffold_State to Database--><g id="link_DatabaseScaffold_State_Database"><path codeLine="20" d="M769.58,95.94 C779.09,95.94 788.59,95.94 798.09,95.94 " fill="none" id="DatabaseScaffold_State-to-Database" style="stroke:#181818;stroke-width:1.0;"/><polygon fill="#181818" points="803.01,95.94,794.01,91.94,798.01,95.94,794.01,99.94,803.01,95.94" style="stroke:#181818;stroke-width:1.0;"/></g><!--link TableScaffold to Table--><g id="link_TableScaffold_Table"><path codeLine="21" d="M279.37,95.94 C288.86,95.94 298.34,95.94 307.82,95.94 " fill="none" id="TableScaffold-to-Table" style="stroke:#181818;stroke-width:1.0;"/><polygon fill="#181818" points="312.72,95.94,303.72,91.94,307.72,95.94,303.72,99.94,312.72,95.94" style="stroke:#181818;stroke-width:1.0;"/></g><!--SRC=[TL1D2uCm3BttL-Ie3Fz1wM0VddPpzz7LE8JQG1k5CVRVfzNfXbiFeSdBotk9iJe4EEkhnSBegY9RoXsrhjJ-hk0Xe7_PY0CFSQhaBRSUPGIsga-TuPfSaa90YuOZ89v2c2Xmq3rPXrdZKh1cb7joxCbQz8lMknNAwREU8e-EQvxzRU1K1nwzABWXZqv3RsRXHdH5xAWkmMD37UQUcYHsfGFhwoIGgJyhYD_bJy9wr7YS5m00]--></g></svg>